<?xml version="1.0" encoding="utf-8"?>
<!-- Generator: Adobe Illustrator 16.2.0, SVG Export Plug-In . SVG Version: 6.00 Build 0)  -->
<!DOCTYPE svg PUBLIC "-//W3C//DTD SVG 1.1//EN" "http://www.w3.org/Graphics/SVG/1.1/DTD/svg11.dtd">
<svg version="1.1" id="Layer_1" xmlns="http://www.w3.org/2000/svg" xmlns:xlink="http://www.w3.org/1999/xlink" x="0px" y="0px"
	 width="604px" height="817.375px" viewBox="0 0 604 817.375" enable-background="new 0 0 604 817.375" xml:space="preserve">
<g>
	<g>
		<path fill="none" stroke="#FFFFFF" stroke-width="0.9769" stroke-miterlimit="10" d="M572.633,455.379
			c0,10.746-7.613,23.938-16.921,29.309L315.36,623.454c-9.309,5.373-24.535,5.373-33.841,0L41.167,484.688
			c-9.306-5.371-16.92-18.563-16.92-29.309V177.844c0-10.746,7.614-23.934,16.92-29.307L281.519,9.769
			c9.306-5.373,24.535-5.373,33.841,0l240.352,138.768c9.308,5.373,16.921,18.561,16.921,29.307V455.379z"/>
	</g>
</g>
<g>
	<path fill="#46B6E5" d="M62.552,742.943h19.469v30.752c-8.599,9.59-20.503,14.384-35.713,14.384
		c-12.73,0-23.416-4.216-32.054-12.648c-8.64-8.432-12.958-19.073-12.958-31.93c0-12.854,4.402-23.579,13.206-32.178
		c8.804-8.598,19.426-12.896,31.868-12.896c12.44,0,23.25,4.092,32.426,12.276l-10.044,14.508
		c-3.887-3.389-7.461-5.724-10.726-7.006c-3.267-1.281-6.801-1.922-10.603-1.922c-7.358,0-13.559,2.501-18.6,7.502
		c-5.044,5.002-7.564,11.594-7.564,19.777c0,8.185,2.418,14.736,7.254,19.653c4.836,4.919,10.603,7.378,17.299,7.378
		c6.695,0,12.275-1.279,16.739-3.844L62.552,742.943L62.552,742.943z"/>
	<path fill="#46B6E5" d="M155.18,777.415c-7.523,7.11-16.349,10.664-26.474,10.664c-10.127,0-18.497-3.119-25.11-9.362
		c-6.614-6.24-9.92-14.609-9.92-25.109c0-10.497,3.367-18.849,10.106-25.049c6.736-6.198,14.693-9.3,23.87-9.3
		c9.176,0,16.967,2.771,23.374,8.31c6.405,5.539,9.609,13.144,9.609,22.814v9.92h-48.607c0.577,3.64,2.479,6.615,5.704,8.929
		c3.224,2.314,6.86,3.473,10.911,3.473c6.53,0,11.904-2.189,16.12-6.572L155.18,777.415z M137.324,737.859
		c-2.563-2.149-5.685-3.226-9.362-3.226c-3.679,0-7.049,1.116-10.105,3.35c-3.06,2.23-4.836,5.25-5.332,9.052h29.264
		C141.373,743.067,139.886,740.01,137.324,737.859z"/>
	<path fill="#46B6E5" d="M195.479,733.767v29.886c0,2.563,0.661,4.567,1.984,6.014c1.321,1.447,2.893,2.17,4.712,2.17
		c3.472,0,6.405-1.569,8.804-4.712l6.944,13.021c-5.787,5.291-11.885,7.937-18.29,7.937c-6.407,0-11.822-2.108-16.244-6.324
		c-4.423-4.216-6.634-9.961-6.634-17.235V733.77h-7.813v-13.393h7.813v-19.964h18.724v19.964h16.12v13.393h-16.12V733.767z"/>
	<path fill="#46B6E5" d="M292.198,700.411v17.235h-43.152v17.855h38.813v16.492h-38.813v17.979h44.517v17.112h-63.86v-86.676h62.495
		V700.411z"/>
	<path fill="#46B6E5" d="M326.921,749.887v37.2h-18.602v-66.712h18.602v7.439c5.619-5.703,11.943-8.557,18.971-8.557
		c7.025,0,12.916,2.48,17.671,7.44c4.754,4.96,7.131,11.574,7.131,19.84v40.548h-18.601V749.39c0-10.249-3.764-15.376-11.285-15.376
		c-3.719,0-6.965,1.346-9.733,4.03C328.304,740.732,326.921,744.679,326.921,749.887z"/>
	<path fill="#46B6E5" d="M404.421,787.087l-26.412-66.836h19.345l16.616,42.036l16.615-42.036h19.344l-26.412,66.836H404.421z"/>
	<path fill="#46B6E5" d="M524.329,753.73c0,9.673-3.349,17.814-10.043,24.429c-6.695,6.614-15.109,9.92-25.234,9.92
		c-10.127,0-18.537-3.306-25.233-9.92c-6.695-6.613-10.043-14.756-10.043-24.429s3.348-17.834,10.043-24.489
		c6.696-6.653,15.106-9.982,25.233-9.982c10.125,0,18.539,3.329,25.234,9.982C520.98,735.896,524.329,744.059,524.329,753.73z
		 M472.497,753.73c0,5.455,1.551,9.9,4.649,13.329c3.101,3.433,7.068,5.146,11.904,5.146s8.805-1.715,11.904-5.146
		c3.1-3.429,4.65-7.874,4.65-13.329s-1.552-9.921-4.65-13.393c-3.1-3.472-7.068-5.208-11.904-5.208s-8.805,1.736-11.904,5.208
		C474.048,743.81,472.497,748.275,472.497,753.73z"/>
	<path fill="#46B6E5" d="M548.015,813.375c-6.53,0-12.69-2.646-18.477-7.938l8.432-13.764c3.142,3.059,6.365,4.588,9.673,4.588
		c1.735,0,3.225-0.849,4.465-2.542c1.239-1.694,1.858-3.493,1.858-5.394c0-1.901-8.598-24.552-25.791-67.952h19.841l16.243,41.54
		l16.244-41.54h19.84l-31,78.616c-1.819,4.545-4.649,8.079-8.493,10.602C557.005,812.113,552.727,813.375,548.015,813.375z"/>
</g>
<linearGradient id="SVGID_1_" gradientUnits="userSpaceOnUse" x1="-1361.4824" y1="1067.9063" x2="-816.6172" y2="1067.9063" gradientTransform="matrix(1 0 0 1 1388 -751.2939)">
	<stop  offset="0" style="stop-color:#A4DCE8"/>
	<stop  offset="0.0825" style="stop-color:#99D7E5"/>
	<stop  offset="0.4645" style="stop-color:#77C7DB"/>
	<stop  offset="0.784" style="stop-color:#5FC0D7"/>
	<stop  offset="1" style="stop-color:#55BDD6"/>
</linearGradient>
<path fill="url(#SVGID_1_)" d="M554.579,149.66L315.754,11.803c-9.177-5.438-24.433-5.438-33.607,0L43.322,149.66
	c-9.176,5.273-16.804,18.355-16.804,29.098v275.821c0,10.62,7.628,23.673,16.804,29.111l238.825,137.843
	c9.175,5.287,24.431,5.287,33.607,0L554.579,483.69c9.204-5.438,16.804-18.491,16.804-29.111V178.758
	C571.383,168.015,563.783,154.933,554.579,149.66z M509.147,415.879c0,8.22-5.76,18.355-12.917,22.381L311.865,544.68
	c-7.005,4.225-18.827,4.225-25.83,0L101.669,438.26c-7.004-4.025-12.917-14.161-12.917-22.381V203.023
	c0-8.244,5.912-18.355,12.917-22.403L286.035,74.198c7.003-4.049,18.825-4.049,25.83,0L496.23,180.62
	c7.157,4.048,12.917,14.159,12.917,22.403V415.879z"/>
</svg>
