<?xml version="1.0" encoding="utf-8"?>
<!-- Generator: Adobe Illustrator 16.2.0, SVG Export Plug-In . SVG Version: 6.00 Build 0)  -->
<!DOCTYPE svg PUBLIC "-//W3C//DTD SVG 1.1//EN" "http://www.w3.org/Graphics/SVG/1.1/DTD/svg11.dtd">
<svg version="1.1" id="Layer_1" xmlns="http://www.w3.org/2000/svg" xmlns:xlink="http://www.w3.org/1999/xlink" x="0px" y="0px"
	 width="601.639px" height="817.375px" viewBox="0 0 601.639 817.375" enable-background="new 0 0 601.639 817.375"
	 xml:space="preserve">
<g>
	<g>
		<linearGradient id="SVGID_1_" gradientUnits="userSpaceOnUse" x1="24.2461" y1="316.6118" x2="572.6328" y2="316.6118">
			<stop  offset="0" style="stop-color:#A2DCE8"/>
			<stop  offset="0.0825" style="stop-color:#99D7E5"/>
			<stop  offset="0.4645" style="stop-color:#76C8DC"/>
			<stop  offset="0.784" style="stop-color:#5EC0D7"/>
			<stop  offset="1" style="stop-color:#54BDD5"/>
		</linearGradient>
		<path fill="url(#SVGID_1_)" d="M572.633,455.379c0,10.746-7.614,23.935-16.921,29.308L315.36,623.454
			c-9.306,5.373-24.535,5.373-33.841,0L41.167,484.687c-9.306-5.373-16.92-18.562-16.92-29.308V177.844
			c0-10.746,7.614-23.934,16.92-29.307L281.519,9.769c9.306-5.373,24.535-5.373,33.841,0l240.352,138.768
			c9.307,5.373,16.921,18.561,16.921,29.307V455.379z"/>
		<path fill="none" stroke="#FFFFFF" stroke-width="0.9769" stroke-miterlimit="10" d="M572.633,455.379
			c0,10.746-7.614,23.935-16.921,29.308L315.36,623.454c-9.306,5.373-24.535,5.373-33.841,0L41.167,484.687
			c-9.306-5.373-16.92-18.562-16.92-29.308V177.844c0-10.746,7.614-23.934,16.92-29.307L281.519,9.769
			c9.306-5.373,24.535-5.373,33.841,0l240.352,138.768c9.307,5.373,16.921,18.561,16.921,29.307V455.379z"/>
	</g>
	<g>
		<g>
			<path fill="#46B6E5" d="M0,746.255c0-11.974,2.849-21.614,8.547-28.924s13.38-10.964,23.046-10.964
				c8.559,0,15.219,2.934,19.98,8.8l0.865-7.357h18.898v75.448c0,6.827-1.551,12.767-4.652,17.816
				c-3.102,5.049-7.466,8.896-13.092,11.541c-5.626,2.644-12.215,3.967-19.764,3.967c-5.723,0-11.301-1.143-16.734-3.426
				c-5.435-2.285-9.546-5.229-12.334-8.836l9.232-12.695c5.193,5.817,11.493,8.728,18.898,8.728c5.529,0,9.833-1.479,12.911-4.436
				c3.077-2.958,4.616-7.153,4.616-12.587v-4.184c-4.809,5.435-11.133,8.15-18.97,8.15c-9.377,0-16.963-3.666-22.757-11
				C2.896,768.965,0,759.238,0,747.12V746.255z M20.846,747.807c0,7.08,1.417,12.631,4.255,16.652
				c2.837,4.021,6.732,6.032,11.686,6.032c6.347,0,10.892-2.384,13.632-7.152V730.47c-2.79-4.768-7.285-7.152-13.488-7.152
				c-5.002,0-8.933,2.048-11.793,6.142C22.276,733.552,20.846,739.669,20.846,747.807z"/>
			<path fill="#46B6E5" d="M123.271,787.297c-11.445,0-20.762-3.51-27.95-10.531c-7.189-7.02-10.784-16.373-10.784-28.059v-2.02
				c0-7.837,1.515-14.847,4.544-21.025c3.029-6.179,7.321-10.939,12.875-14.282c5.554-3.342,11.889-5.013,19.006-5.013
				c10.675,0,19.079,3.366,25.209,10.098c6.131,6.733,9.197,16.278,9.197,28.636v8.512h-49.698
				c0.673,5.098,2.705,9.186,6.095,12.262c3.39,3.078,7.682,4.617,12.875,4.617c8.03,0,14.306-2.909,18.826-8.729l10.242,11.469
				c-3.126,4.425-7.357,7.875-12.695,10.351C135.677,786.059,129.762,787.297,123.271,787.297z M120.89,723.173
				c-4.136,0-7.49,1.401-10.062,4.203c-2.573,2.802-4.22,6.811-4.941,12.026h28.997v-1.667c-0.097-4.637-1.347-8.223-3.751-10.759
				C128.728,724.441,125.314,723.173,120.89,723.173z"/>
			<path fill="#46B6E5" d="M192.155,688.623v19.187h13.344v15.292h-13.344v38.95c0,2.885,0.552,4.953,1.659,6.203
				c1.105,1.251,3.221,1.875,6.348,1.875c2.308,0,4.351-0.168,6.131-0.505v15.797c-4.088,1.25-8.295,1.875-12.623,1.875
				c-14.619,0-22.072-7.381-22.361-22.144v-42.052h-11.396V707.81h11.396v-19.187H192.155z"/>
			<path fill="#46B6E5" d="M253.033,787.297c-11.445,0-20.762-3.51-27.95-10.531c-7.189-7.02-10.784-16.373-10.784-28.059v-2.02
				c0-7.837,1.515-14.847,4.544-21.025c3.029-6.179,7.321-10.939,12.875-14.282c5.554-3.342,11.889-5.013,19.006-5.013
				c10.675,0,19.079,3.366,25.209,10.098c6.131,6.733,9.197,16.278,9.197,28.636v8.512h-49.698
				c0.673,5.098,2.705,9.186,6.095,12.262c3.39,3.078,7.682,4.617,12.875,4.617c8.03,0,14.306-2.909,18.826-8.729l10.242,11.469
				c-3.126,4.425-7.357,7.875-12.695,10.351C265.44,786.059,259.525,787.297,253.033,787.297z M250.653,723.173
				c-4.136,0-7.49,1.401-10.062,4.203c-2.573,2.802-4.22,6.811-4.941,12.026h28.997v-1.667c-0.097-4.637-1.347-8.223-3.751-10.759
				C258.49,724.441,255.077,723.173,250.653,723.173z"/>
			<path fill="#46B6E5" d="M316.147,707.81l0.649,9.017c5.578-6.973,13.055-10.459,22.432-10.459c8.271,0,14.426,2.429,18.466,7.285
				c4.039,4.857,6.106,12.117,6.203,21.783v50.419h-20.846V735.94c0-4.424-0.962-7.634-2.886-9.63
				c-1.924-1.994-5.121-2.993-9.593-2.993c-5.867,0-10.267,2.501-13.2,7.502v55.035h-20.846V707.81H316.147z"/>
			<path fill="#46B6E5" d="M408.906,760.393l14.498-52.583h21.784l-26.327,78.045h-19.908l-26.328-78.045h21.783L408.906,760.393z"
				/>
			<path fill="#46B6E5" d="M450.021,746.11c0-7.741,1.49-14.643,4.473-20.701c2.98-6.059,7.271-10.747,12.875-14.065
				c5.602-3.318,12.105-4.977,19.511-4.977c10.531,0,19.126,3.222,25.786,9.665c6.66,6.444,10.375,15.196,11.145,26.256l0.145,5.337
				c0,11.974-3.343,21.58-10.026,28.816c-6.685,7.238-15.652,10.855-26.904,10.855c-11.253,0-20.233-3.606-26.94-10.819
				c-6.709-7.213-10.063-17.022-10.063-29.429V746.11z M470.867,747.591c0,7.417,1.395,13.088,4.184,17.013
				c2.788,3.925,6.78,5.888,11.974,5.888c5.049,0,8.991-1.939,11.829-5.816c2.837-3.877,4.256-10.076,4.256-18.602
				c0-7.271-1.419-12.906-4.256-16.904c-2.838-3.996-6.828-5.996-11.974-5.996c-5.098,0-9.041,1.987-11.829,5.96
				C472.262,733.106,470.867,739.26,470.867,747.591z"/>
			<path fill="#46B6E5" d="M564.853,756.354l14.427-48.544h22.359l-31.376,90.163l-1.731,4.111
				c-4.664,10.194-12.359,15.291-23.082,15.291c-3.029,0-6.107-0.457-9.232-1.37v-15.797l3.174,0.072
				c3.942,0,6.889-0.602,8.836-1.803c1.947-1.203,3.474-3.199,4.58-5.987l2.453-6.419l-27.338-78.262h22.433L564.853,756.354z"/>
		</g>
	</g>
</g>
</svg>
