<?xml version="1.0" encoding="utf-8"?>
<!-- Generator: Adobe Illustrator 16.2.0, SVG Export Plug-In . SVG Version: 6.00 Build 0)  -->
<!DOCTYPE svg PUBLIC "-//W3C//DTD SVG 1.1//EN" "http://www.w3.org/Graphics/SVG/1.1/DTD/svg11.dtd">
<svg version="1.1" id="Layer_1" xmlns="http://www.w3.org/2000/svg" xmlns:xlink="http://www.w3.org/1999/xlink" x="0px" y="0px"
	 width="144.311px" height="39.707px" viewBox="0 0 144.311 39.707" enable-background="new 0 0 144.311 39.707"
	 xml:space="preserve">
<linearGradient id="SVGID_1_" gradientUnits="userSpaceOnUse" x1="-2775.9998" y1="1522.4375" x2="-2740.9802" y2="1522.4375" gradientTransform="matrix(1 0 0 1 2776 -1502.5869)">
	<stop  offset="0" style="stop-color:#A4DCE8"/>
	<stop  offset="0.0825" style="stop-color:#99D7E5"/>
	<stop  offset="0.4645" style="stop-color:#77C7DB"/>
	<stop  offset="0.784" style="stop-color:#5FC0D7"/>
	<stop  offset="1" style="stop-color:#55BDD6"/>
</linearGradient>
<path fill="url(#SVGID_1_)" d="M33.94,9.12L18.59,0.26c-0.59-0.35-1.57-0.35-2.16,0L1.08,9.12C0.49,9.459,0,10.3,0,10.99v17.728
	c0,0.683,0.49,1.521,1.08,1.871l15.35,8.859c0.59,0.34,1.57,0.34,2.16,0l15.35-8.859c0.594-0.35,1.08-1.188,1.08-1.871V10.99
	C35.02,10.3,34.531,9.459,33.94,9.12z M31.02,26.23c0,0.526-0.37,1.18-0.83,1.438l-11.85,6.84c-0.45,0.271-1.21,0.271-1.66,0
	l-11.85-6.84C4.38,27.41,4,26.759,4,26.23V12.55c0-0.53,0.38-1.18,0.83-1.44l11.85-6.84c0.45-0.26,1.21-0.26,1.66,0l11.85,6.84
	c0.46,0.26,0.83,0.91,0.83,1.44V26.23z"/>
<g>
	<path fill="#FFFFFF" d="M53.421,19.663h3.29v5.196c-1.453,1.621-3.465,2.432-6.035,2.432c-2.151,0-3.958-0.713-5.418-2.139
		c-1.46-1.424-2.189-3.226-2.189-5.396s0.744-3.984,2.231-5.438c1.488-1.453,3.283-2.18,5.387-2.18c2.104,0,3.933,0.691,5.479,2.074
		l-1.697,2.452c-0.657-0.572-1.261-0.967-1.813-1.184c-0.557-0.217-1.149-0.325-1.792-0.325c-1.243,0-2.292,0.423-3.146,1.268
		c-0.853,0.846-1.278,1.96-1.278,3.343c0,1.382,0.408,2.49,1.229,3.32c0.814,0.832,1.792,1.248,2.924,1.248s2.074-0.217,2.829-0.648
		L53.421,19.663L53.421,19.663z"/>
	<path fill="#FFFFFF" d="M69.075,25.488c-1.271,1.201-2.767,1.803-4.478,1.803c-1.712,0-3.126-0.525-4.244-1.582
		c-1.114-1.055-1.677-2.469-1.677-4.244c0-1.772,0.569-3.185,1.708-4.232c1.139-1.047,2.483-1.571,4.034-1.571
		s2.868,0.468,3.95,1.404c1.083,0.936,1.625,2.222,1.625,3.854v1.678h-8.214c0.098,0.615,0.42,1.117,0.965,1.51
		c0.544,0.394,1.155,0.586,1.844,0.586c1.104,0,2.012-0.366,2.725-1.106L69.075,25.488z M66.058,18.803
		c-0.433-0.363-0.96-0.545-1.582-0.545s-1.188,0.188-1.708,0.565c-0.517,0.378-0.813,0.888-0.897,1.53h4.942
		C66.742,19.683,66.49,19.167,66.058,18.803z"/>
	<path fill="#FFFFFF" d="M75.887,18.112v5.051c0,0.432,0.111,0.771,0.335,1.016c0.224,0.244,0.489,0.365,0.796,0.365
		c0.587,0,1.083-0.264,1.488-0.795l1.174,2.199c-0.979,0.895-2.009,1.342-3.091,1.342c-1.083,0-1.998-0.354-2.746-1.067
		c-0.747-0.714-1.121-1.685-1.121-2.912v-5.195h-1.32V15.85h1.32v-3.374h3.165v3.374h2.725v2.264L75.887,18.112L75.887,18.112z"/>
	<path fill="#FFFFFF" d="M92.232,12.474v2.913h-7.293v3.021H91.5v2.785h-6.563v3.039h7.523v2.894H81.67v-14.65L92.232,12.474
		L92.232,12.474z"/>
	<path fill="#FFFFFF" d="M98.101,20.835v6.287h-3.144V15.848h3.144v1.258c0.95-0.964,2.021-1.446,3.206-1.446
		c1.188,0,2.188,0.419,2.986,1.258c0.804,0.838,1.205,1.956,1.205,3.353v6.854h-3.146v-6.371c0-1.731-0.636-2.598-1.903-2.598
		c-0.632,0-1.181,0.227-1.646,0.681C98.334,19.289,98.101,19.956,98.101,20.835z"/>
	<path fill="#FFFFFF" d="M111.198,27.123l-4.468-11.294h3.271l2.809,7.104l2.812-7.104h3.27l-4.464,11.294H111.198z"/>
	<path fill="#FFFFFF" d="M131.464,21.486c0,1.635-0.565,3.01-1.697,4.129c-1.132,1.117-2.554,1.676-4.265,1.676
		c-1.712,0-3.133-0.559-4.269-1.676c-1.132-1.119-1.693-2.494-1.693-4.129c0-1.635,0.563-3.018,1.693-4.139
		c1.136-1.125,2.557-1.688,4.269-1.688c1.711,0,3.133,0.563,4.265,1.688C130.898,18.471,131.464,19.851,131.464,21.486z
		 M122.704,21.486c0,0.922,0.262,1.674,0.786,2.252c0.521,0.58,1.19,0.869,2.012,0.869c0.814,0,1.488-0.289,2.012-0.869
		c0.523-0.578,0.786-1.33,0.786-2.252s-0.263-1.677-0.786-2.264c-0.521-0.587-1.194-0.88-2.012-0.88
		c-0.818,0-1.488,0.293-2.012,0.88C122.966,19.809,122.704,20.564,122.704,21.486z"/>
	<path fill="#FFFFFF" d="M135.467,31.566c-1.104,0-2.145-0.447-3.123-1.342l1.426-2.326c0.53,0.518,1.075,0.772,1.634,0.772
		c0.298,0,0.55-0.144,0.759-0.43c0.21-0.287,0.313-0.593,0.313-0.912c0-0.32-1.453-4.146-4.355-11.483h3.354l2.745,7.021
		l2.745-7.021h3.354l-5.235,13.286c-0.312,0.771-0.786,1.365-1.438,1.791C136.987,31.354,136.263,31.566,135.467,31.566z"/>
</g>
</svg>
