<?xml version="1.0" encoding="utf-8"?>
<!-- Generator: Adobe Illustrator 16.2.0, SVG Export Plug-In . SVG Version: 6.00 Build 0)  -->
<!DOCTYPE svg PUBLIC "-//W3C//DTD SVG 1.1//EN" "http://www.w3.org/Graphics/SVG/1.1/DTD/svg11.dtd">
<svg version="1.1" id="Layer_1" xmlns="http://www.w3.org/2000/svg" xmlns:xlink="http://www.w3.org/1999/xlink" x="0px" y="0px"
	 width="144.311px" height="39.706px" viewBox="0 0 144.311 39.706" enable-background="new 0 0 144.311 39.706"
	 xml:space="preserve">
<g>
	<g>
		
			<linearGradient id="SVGID_1_" gradientUnits="userSpaceOnUse" x1="-1388" y1="-6.522" x2="-1352.9795" y2="-6.522" gradientTransform="matrix(1 0 0 1 1388 26.375)">
			<stop  offset="0" style="stop-color:#A4DCE8"/>
			<stop  offset="0.0825" style="stop-color:#99D7E5"/>
			<stop  offset="0.4645" style="stop-color:#77C7DB"/>
			<stop  offset="0.784" style="stop-color:#5FC0D7"/>
			<stop  offset="1" style="stop-color:#55BDD6"/>
		</linearGradient>
		<path fill="url(#SVGID_1_)" d="M35.021,28.715c0,0.686-0.486,1.528-1.081,1.871l-15.349,8.861c-0.594,0.344-1.567,0.344-2.161,0
			L1.081,30.586C0.486,30.244,0,29.401,0,28.715V10.99c0-0.686,0.486-1.528,1.081-1.872L16.43,0.257
			c0.594-0.343,1.567-0.343,2.161,0L33.94,9.119c0.594,0.343,1.081,1.186,1.081,1.872V28.715z"/>
		<path fill="none" stroke="#FFFFFF" stroke-width="0.0624" stroke-miterlimit="10" d="M35.021,28.715
			c0,0.686-0.486,1.528-1.081,1.871l-15.349,8.861c-0.594,0.344-1.567,0.344-2.161,0L1.081,30.586C0.486,30.244,0,29.401,0,28.715
			V10.99c0-0.686,0.486-1.528,1.081-1.872L16.43,0.257c0.594-0.343,1.567-0.343,2.161,0L33.94,9.119
			c0.594,0.343,1.081,1.186,1.081,1.872V28.715z"/>
	</g>
</g>
<g>
	<path fill="#4AB6E4" d="M53.421,17.663h3.29v5.196c-1.453,1.621-3.465,2.432-6.035,2.432c-2.151,0-3.958-0.713-5.418-2.138
		s-2.189-3.224-2.189-5.396c0-2.172,0.744-3.984,2.231-5.438c1.488-1.453,3.283-2.18,5.387-2.18c2.103,0,3.929,0.691,5.479,2.074
		l-1.697,2.452c-0.657-0.572-1.261-0.967-1.813-1.184c-0.553-0.217-1.149-0.325-1.792-0.325c-1.243,0-2.292,0.423-3.144,1.268
		c-0.853,0.846-1.278,1.96-1.278,3.343s0.408,2.49,1.226,3.321s1.792,1.247,2.924,1.247s2.074-0.217,2.829-0.649V17.663z"/>
	<path fill="#4AB6E4" d="M69.075,23.488c-1.271,1.202-2.763,1.803-4.474,1.803c-1.712,0-3.126-0.527-4.244-1.582
		s-1.677-2.47-1.677-4.244c0-1.773,0.569-3.186,1.708-4.233c1.139-1.047,2.483-1.571,4.034-1.571s2.868,0.468,3.95,1.404
		c1.083,0.936,1.625,2.222,1.625,3.855v1.677h-8.215c0.097,0.615,0.419,1.118,0.964,1.509c0.544,0.391,1.159,0.587,1.844,0.587
		c1.104,0,2.012-0.37,2.725-1.11L69.075,23.488z M66.058,16.803c-0.433-0.363-0.96-0.545-1.582-0.545s-1.191,0.188-1.708,0.565
		c-0.517,0.378-0.817,0.888-0.901,1.53h4.946C66.742,17.683,66.49,17.167,66.058,16.803z"/>
	<path fill="#4AB6E4" d="M75.887,16.112v5.051c0,0.433,0.111,0.771,0.335,1.016c0.224,0.245,0.489,0.366,0.796,0.366
		c0.587,0,1.083-0.265,1.488-0.795l1.174,2.199c-0.979,0.895-2.009,1.342-3.091,1.342c-1.083,0-1.998-0.356-2.746-1.068
		c-0.747-0.713-1.121-1.684-1.121-2.913v-5.197h-1.32v-2.264h1.32v-3.374h3.165v3.374h2.725v2.264H75.887z"/>
	<path fill="#4AB6E4" d="M92.232,10.474v2.913h-7.293v3.018h6.56v2.787h-6.56v3.039h7.523v2.892H81.67V10.474H92.232z"/>
	<path fill="#4AB6E4" d="M98.101,18.835v6.287h-3.144V13.848h3.144v1.258c0.95-0.964,2.019-1.446,3.206-1.446
		s2.184,0.419,2.986,1.258c0.804,0.838,1.205,1.956,1.205,3.353v6.853h-3.144v-6.37c0-1.732-0.636-2.599-1.907-2.599
		c-0.628,0-1.177,0.227-1.645,0.681C98.334,17.289,98.101,17.956,98.101,18.835z"/>
	<path fill="#4AB6E4" d="M111.198,25.123l-4.464-11.295h3.27l2.809,7.104l2.808-7.104h3.27l-4.464,11.295H111.198z"/>
	<path fill="#4AB6E4" d="M131.464,19.486c0,1.635-0.565,3.01-1.697,4.128s-2.554,1.677-4.265,1.677
		c-1.712,0-3.133-0.559-4.265-1.677s-1.697-2.493-1.697-4.128s0.565-3.015,1.697-4.139c1.132-1.125,2.553-1.688,4.265-1.688
		c1.711,0,3.133,0.563,4.265,1.688C130.898,16.471,131.464,17.851,131.464,19.486z M122.704,19.486c0,0.922,0.262,1.673,0.786,2.252
		c0.523,0.58,1.194,0.87,2.012,0.87s1.488-0.29,2.012-0.87c0.523-0.579,0.786-1.33,0.786-2.252s-0.263-1.677-0.786-2.264
		s-1.194-0.88-2.012-0.88s-1.488,0.293-2.012,0.88C122.966,17.809,122.704,18.564,122.704,19.486z"/>
	<path fill="#4AB6E4" d="M135.467,29.566c-1.104,0-2.145-0.447-3.123-1.342l1.426-2.326c0.53,0.518,1.075,0.775,1.634,0.775
		c0.294,0,0.546-0.143,0.755-0.43c0.21-0.286,0.314-0.59,0.314-0.911s-1.453-4.149-4.359-11.484h3.354l2.745,7.021l2.745-7.021
		h3.354l-5.239,13.286c-0.308,0.769-0.786,1.365-1.436,1.792S136.263,29.566,135.467,29.566z"/>
</g>
</svg>
