<?xml version="1.0" encoding="utf-8"?>
<!-- Generator: Adobe Illustrator 16.2.0, SVG Export Plug-In . SVG Version: 6.00 Build 0)  -->
<!DOCTYPE svg PUBLIC "-//W3C//DTD SVG 1.1//EN" "http://www.w3.org/Graphics/SVG/1.1/DTD/svg11.dtd">
<svg version="1.1" id="Layer_1" xmlns="http://www.w3.org/2000/svg" xmlns:xlink="http://www.w3.org/1999/xlink" x="0px" y="0px"
	 width="144.311px" height="39.707px" viewBox="0 0 144.311 39.707" enable-background="new 0 0 144.311 39.707"
	 xml:space="preserve">
<g>
	<path fill="#FFFFFF" d="M48.355,34.071c0.392,0,0.734,0.153,1.026,0.459c0.292,0.307,0.438,0.699,0.438,1.18
		c0,0.479-0.15,0.882-0.45,1.205c-0.3,0.324-0.641,0.486-1.023,0.486c-0.382,0-0.699-0.158-0.951-0.474v0.426h-0.9v-4.452h0.9v1.584
		C47.642,34.21,47.963,34.071,48.355,34.071z M47.383,35.742c0,0.263,0.073,0.477,0.219,0.643c0.146,0.166,0.323,0.249,0.531,0.249
		s0.39-0.083,0.546-0.249c0.156-0.166,0.234-0.379,0.234-0.64c0-0.26-0.076-0.478-0.228-0.653c-0.152-0.176-0.334-0.265-0.546-0.265
		s-0.391,0.087-0.537,0.262C47.455,35.263,47.383,35.48,47.383,35.742z"/>
	<path fill="#FFFFFF" d="M50.983,38.626c-0.316,0-0.614-0.129-0.894-0.385l0.408-0.666c0.152,0.148,0.308,0.223,0.468,0.223
		c0.084,0,0.156-0.041,0.216-0.123s0.09-0.169,0.09-0.262c0-0.092-0.416-1.188-1.248-3.287h0.96l0.786,2.01l0.786-2.01h0.96
		l-1.5,3.804c-0.088,0.22-0.225,0.391-0.411,0.513S51.211,38.626,50.983,38.626z"/>
	<path fill="#FFFFFF" d="M60.128,32.439h-1.746v4.914h-0.934v-4.914h-1.734v-0.773h4.414V32.439z"/>
	<path fill="#FFFFFF" d="M62.894,37.432c-0.313,0-0.598-0.052-0.855-0.156s-0.479-0.247-0.662-0.43s-0.326-0.397-0.428-0.646
		s-0.152-0.518-0.152-0.807v-0.16c0-0.336,0.054-0.638,0.162-0.906s0.252-0.497,0.434-0.688s0.392-0.336,0.633-0.438
		s0.494-0.152,0.76-0.152c0.307,0,0.578,0.052,0.813,0.154s0.43,0.247,0.588,0.434s0.277,0.407,0.357,0.662s0.121,0.535,0.121,0.84
		v0.395h-2.93c0.016,0.164,0.056,0.316,0.121,0.457s0.15,0.263,0.256,0.365s0.229,0.184,0.371,0.242s0.297,0.088,0.467,0.088
		c0.237,0,0.455-0.047,0.654-0.141s0.361-0.223,0.486-0.387l0.508,0.477c-0.068,0.102-0.155,0.2-0.262,0.295
		s-0.232,0.18-0.375,0.254s-0.304,0.134-0.482,0.18S63.105,37.432,62.894,37.432z M62.781,33.803c-0.13,0-0.251,0.023-0.363,0.07
		s-0.212,0.115-0.301,0.205s-0.164,0.199-0.225,0.328s-0.105,0.275-0.131,0.439h1.98v-0.07c-0.008-0.125-0.032-0.245-0.072-0.361
		s-0.1-0.22-0.178-0.311s-0.176-0.164-0.295-0.219S62.939,33.803,62.781,33.803z"/>
	<path fill="#FFFFFF" d="M67.597,32.104v1.023h1.598v0.695h-1.598v2.027c0,0.159,0.019,0.29,0.057,0.395s0.09,0.188,0.158,0.25
		s0.147,0.106,0.238,0.131s0.191,0.037,0.301,0.037c0.081,0,0.165-0.005,0.252-0.014s0.172-0.02,0.254-0.031
		s0.158-0.024,0.227-0.039s0.127-0.028,0.174-0.041l0.105,0.645c-0.068,0.039-0.149,0.075-0.244,0.107s-0.199,0.06-0.311,0.08
		s-0.229,0.037-0.35,0.049s-0.24,0.018-0.357,0.018c-0.211,0-0.404-0.029-0.58-0.088s-0.327-0.149-0.453-0.273
		s-0.225-0.282-0.297-0.477s-0.107-0.427-0.107-0.697v-2.078h-1.031v-0.695h1.031v-1.023H67.597z"/>
	<path fill="#FFFFFF" d="M73.429,33.049c0.076,0,0.15,0.003,0.227,0.008s0.148,0.013,0.217,0.023s0.133,0.021,0.189,0.033
		s0.105,0.025,0.145,0.041l-0.133,0.918c-0.287-0.065-0.568-0.098-0.848-0.098c-0.313,0-0.564,0.065-0.756,0.195
		s-0.333,0.312-0.424,0.543v2.641h-0.934v-4.227h0.875l0.043,0.66c0.172-0.229,0.375-0.409,0.611-0.541
		C72.878,33.114,73.14,33.049,73.429,33.049z"/>
	<path fill="#FFFFFF" d="M78.023,37.354c-0.026-0.052-0.048-0.113-0.064-0.184s-0.032-0.146-0.045-0.227
		c-0.065,0.067-0.139,0.131-0.221,0.189s-0.173,0.11-0.273,0.154s-0.208,0.079-0.324,0.105s-0.24,0.039-0.373,0.039
		c-0.224,0-0.427-0.032-0.607-0.096s-0.336-0.152-0.465-0.266s-0.229-0.247-0.299-0.4s-0.105-0.32-0.105-0.5
		c0-0.453,0.169-0.8,0.506-1.039s0.821-0.359,1.451-0.359h0.684v-0.277c0-0.224-0.075-0.401-0.227-0.533s-0.364-0.197-0.641-0.197
		c-0.125,0-0.234,0.015-0.328,0.045s-0.172,0.071-0.234,0.123s-0.109,0.113-0.141,0.184s-0.047,0.146-0.047,0.227h-0.934
		c0-0.164,0.038-0.323,0.115-0.479s0.189-0.293,0.338-0.414s0.33-0.218,0.545-0.291s0.46-0.109,0.736-0.109
		c0.25,0,0.481,0.03,0.695,0.092s0.398,0.152,0.555,0.273s0.278,0.272,0.367,0.453s0.133,0.393,0.133,0.635v1.883
		c0,0.185,0.014,0.354,0.041,0.506s0.067,0.284,0.119,0.396v0.066H78.023z M76.898,36.678c0.12,0,0.232-0.015,0.338-0.045
		s0.2-0.069,0.285-0.117s0.157-0.104,0.219-0.166s0.11-0.126,0.146-0.191v-0.793h-0.594c-0.38,0-0.661,0.062-0.842,0.184
		s-0.271,0.297-0.271,0.523c0,0.086,0.015,0.166,0.043,0.24s0.072,0.138,0.131,0.191s0.133,0.096,0.223,0.127
		S76.773,36.678,76.898,36.678z"/>
	<path fill="#FFFFFF" d="M81.999,32.104v1.023h1.598v0.695h-1.598v2.027c0,0.159,0.019,0.29,0.057,0.395s0.091,0.188,0.158,0.25
		s0.147,0.106,0.238,0.131s0.191,0.037,0.301,0.037c0.081,0,0.165-0.005,0.252-0.014s0.172-0.02,0.254-0.031
		s0.157-0.024,0.227-0.039s0.127-0.028,0.174-0.041l0.105,0.645c-0.067,0.039-0.149,0.075-0.244,0.107s-0.198,0.06-0.311,0.08
		s-0.229,0.037-0.35,0.049s-0.24,0.018-0.357,0.018c-0.211,0-0.404-0.029-0.58-0.088s-0.327-0.149-0.453-0.273
		s-0.226-0.282-0.297-0.477s-0.107-0.427-0.107-0.697v-2.078h-1.031v-0.695h1.031v-1.023H81.999z"/>
	<path fill="#FFFFFF" d="M86.898,37.432c-0.313,0-0.598-0.052-0.855-0.156s-0.479-0.247-0.662-0.43s-0.326-0.397-0.428-0.646
		S84.8,35.682,84.8,35.393v-0.16c0-0.336,0.054-0.638,0.162-0.906s0.253-0.497,0.434-0.688s0.392-0.336,0.633-0.438
		s0.494-0.152,0.76-0.152c0.308,0,0.578,0.052,0.813,0.154s0.431,0.247,0.588,0.434s0.276,0.407,0.357,0.662s0.121,0.535,0.121,0.84
		v0.395h-2.93c0.016,0.164,0.056,0.316,0.121,0.457s0.15,0.263,0.256,0.365s0.229,0.184,0.371,0.242s0.298,0.088,0.467,0.088
		c0.237,0,0.455-0.047,0.654-0.141s0.361-0.223,0.486-0.387l0.508,0.477c-0.067,0.102-0.155,0.2-0.262,0.295
		s-0.231,0.18-0.375,0.254s-0.304,0.134-0.482,0.18S87.109,37.432,86.898,37.432z M86.784,33.803c-0.13,0-0.251,0.023-0.363,0.07
		s-0.212,0.115-0.301,0.205s-0.163,0.199-0.225,0.328s-0.104,0.275-0.131,0.439h1.98v-0.07c-0.008-0.125-0.032-0.245-0.072-0.361
		s-0.1-0.22-0.178-0.311s-0.177-0.164-0.295-0.219S86.944,33.803,86.784,33.803z"/>
</g>
<linearGradient id="SVGID_1_" gradientUnits="userSpaceOnUse" x1="-2081.9998" y1="-126.437" x2="-2046.9802" y2="-126.437" gradientTransform="matrix(1 0 0 -1 2082 -106.5869)">
	<stop  offset="0" style="stop-color:#A4DCE8"/>
	<stop  offset="0.0825" style="stop-color:#99D7E5"/>
	<stop  offset="0.4645" style="stop-color:#77C7DB"/>
	<stop  offset="0.784" style="stop-color:#5FC0D7"/>
	<stop  offset="1" style="stop-color:#55BDD6"/>
</linearGradient>
<path fill="url(#SVGID_1_)" d="M33.94,9.12L18.59,0.26c-0.59-0.35-1.57-0.35-2.16,0L1.08,9.12C0.49,9.459,0,10.3,0,10.99v17.728
	c0,0.683,0.49,1.521,1.08,1.871l15.35,8.859c0.59,0.34,1.57,0.34,2.16,0l15.35-8.859c0.593-0.35,1.08-1.188,1.08-1.871V10.99
	C35.02,10.3,34.531,9.459,33.94,9.12z M31.02,26.23c0,0.527-0.37,1.18-0.83,1.438l-11.85,6.84c-0.45,0.271-1.21,0.271-1.66,0
	l-11.85-6.84C4.38,27.41,4,26.759,4,26.23V12.55c0-0.53,0.38-1.18,0.83-1.44l11.85-6.84c0.45-0.26,1.21-0.26,1.66,0l11.85,6.84
	c0.46,0.26,0.83,0.91,0.83,1.44V26.23z"/>
<g>
	<path fill="#FFFFFF" d="M53.421,19.663h3.29v5.196c-1.453,1.621-3.465,2.432-6.035,2.432c-2.151,0-3.958-0.713-5.418-2.139
		c-1.46-1.424-2.189-3.225-2.189-5.396s0.744-3.984,2.231-5.438c1.488-1.453,3.283-2.18,5.387-2.18c2.104,0,3.932,0.691,5.479,2.074
		l-1.697,2.452c-0.657-0.572-1.261-0.967-1.813-1.184c-0.556-0.217-1.149-0.325-1.792-0.325c-1.243,0-2.292,0.423-3.146,1.268
		c-0.853,0.846-1.278,1.96-1.278,3.343c0,1.382,0.408,2.49,1.229,3.32c0.815,0.832,1.792,1.248,2.924,1.248s2.074-0.217,2.829-0.648
		V19.663z"/>
	<path fill="#FFFFFF" d="M69.075,25.488c-1.271,1.201-2.766,1.803-4.477,1.803c-1.712,0-3.126-0.525-4.244-1.582
		c-1.115-1.055-1.677-2.469-1.677-4.244c0-1.772,0.569-3.185,1.708-4.232c1.139-1.047,2.483-1.571,4.034-1.571
		s2.868,0.468,3.95,1.404c1.083,0.936,1.625,2.222,1.625,3.854v1.678H61.78c0.098,0.615,0.42,1.117,0.965,1.51
		c0.544,0.393,1.156,0.586,1.844,0.586c1.104,0,2.012-0.367,2.725-1.107L69.075,25.488z M66.058,18.803
		c-0.433-0.363-0.96-0.545-1.582-0.545s-1.188,0.188-1.708,0.565c-0.517,0.378-0.814,0.888-0.898,1.53h4.943
		C66.742,19.683,66.49,19.167,66.058,18.803z"/>
	<path fill="#FFFFFF" d="M75.887,18.112v5.051c0,0.432,0.111,0.771,0.335,1.016c0.224,0.244,0.489,0.365,0.796,0.365
		c0.587,0,1.083-0.264,1.488-0.795l1.174,2.199c-0.979,0.895-2.009,1.342-3.091,1.342c-1.083,0-1.998-0.354-2.746-1.067
		c-0.747-0.714-1.121-1.685-1.121-2.912v-5.196h-1.32V15.85h1.32v-3.374h3.165v3.374h2.725v2.264L75.887,18.112L75.887,18.112z"/>
	<path fill="#FFFFFF" d="M92.232,12.474v2.913h-7.293v3.021H91.5v2.786h-6.563v3.039h7.523v2.893H81.67v-14.65L92.232,12.474
		L92.232,12.474z"/>
	<path fill="#FFFFFF" d="M98.101,20.835v6.287h-3.144V15.848h3.144v1.258c0.95-0.964,2.021-1.446,3.206-1.446
		c1.188,0,2.187,0.419,2.986,1.258c0.804,0.838,1.205,1.956,1.205,3.353v6.854h-3.146v-6.371c0-1.731-0.636-2.598-1.904-2.598
		c-0.631,0-1.18,0.227-1.646,0.681C98.334,19.289,98.101,19.956,98.101,20.835z"/>
	<path fill="#FFFFFF" d="M111.198,27.123l-4.467-11.294h3.271l2.809,7.104l2.811-7.104h3.27l-4.464,11.294H111.198z"/>
	<path fill="#FFFFFF" d="M131.464,21.486c0,1.635-0.565,3.01-1.697,4.129c-1.132,1.117-2.554,1.676-4.265,1.676
		c-1.712,0-3.133-0.559-4.268-1.676c-1.132-1.119-1.694-2.494-1.694-4.129c0-1.635,0.563-3.017,1.694-4.139
		c1.135-1.125,2.556-1.688,4.268-1.688c1.711,0,3.133,0.563,4.265,1.688C130.898,18.471,131.464,19.851,131.464,21.486z
		 M122.704,21.486c0,0.922,0.262,1.674,0.786,2.252c0.521,0.58,1.191,0.869,2.012,0.869c0.815,0,1.488-0.289,2.012-0.869
		c0.523-0.578,0.786-1.33,0.786-2.252s-0.263-1.677-0.786-2.264c-0.521-0.587-1.194-0.88-2.012-0.88
		c-0.818,0-1.488,0.293-2.012,0.88C122.966,19.809,122.704,20.564,122.704,21.486z"/>
	<path fill="#FFFFFF" d="M135.467,31.566c-1.104,0-2.145-0.447-3.123-1.342l1.426-2.326c0.53,0.518,1.075,0.773,1.634,0.773
		c0.297,0,0.549-0.143,0.758-0.43c0.21-0.287,0.313-0.592,0.313-0.912s-1.453-4.146-4.356-11.483h3.354l2.745,7.021l2.745-7.021
		h3.354l-5.236,13.286c-0.311,0.77-0.786,1.365-1.438,1.791C136.987,31.354,136.263,31.566,135.467,31.566z"/>
</g>
</svg>
