<?xml version="1.0" encoding="utf-8"?>
<!-- Generator: Adobe Illustrator 16.2.0, SVG Export Plug-In . SVG Version: 6.00 Build 0)  -->
<!DOCTYPE svg PUBLIC "-//W3C//DTD SVG 1.1//EN" "http://www.w3.org/Graphics/SVG/1.1/DTD/svg11.dtd">
<svg version="1.1" id="Layer_1" xmlns="http://www.w3.org/2000/svg" xmlns:xlink="http://www.w3.org/1999/xlink" x="0px" y="0px"
	 width="256px" height="256px" viewBox="0 0 256 256" enable-background="new 0 0 256 256" xml:space="preserve">
<g>
	<path fill="#46B8E6" d="M93.531,150.134c0.587,0,1.099,0.23,1.536,0.688s0.655,1.045,0.655,1.766c0,0.717-0.224,1.319-0.672,1.804
		c-0.45,0.484-0.96,0.726-1.532,0.726c-0.572,0-1.047-0.234-1.423-0.709v0.639h-1.346v-6.663h1.346v2.369
		C92.464,150.342,92.944,150.134,93.531,150.134z M92.076,152.636c0,0.394,0.11,0.713,0.328,0.961
		c0.219,0.249,0.484,0.373,0.795,0.373s0.583-0.124,0.817-0.373c0.233-0.248,0.35-0.566,0.35-0.956c0-0.392-0.113-0.715-0.342-0.979
		c-0.227-0.264-0.5-0.396-0.817-0.396c-0.317,0-0.584,0.129-0.804,0.392C92.185,151.919,92.076,152.243,92.076,152.636z"/>
	<path fill="#46B8E6" d="M97.464,156.953c-0.472,0-0.918-0.194-1.337-0.577l0.61-0.997c0.227,0.221,0.46,0.335,0.7,0.335
		c0.126,0,0.234-0.063,0.323-0.185c0.09-0.124,0.135-0.255,0.135-0.393s-0.623-1.779-1.868-4.92h1.437l1.176,3.008l1.177-3.008
		h1.437l-2.246,5.693c-0.131,0.331-0.336,0.585-0.615,0.769C98.116,156.86,97.806,156.953,97.464,156.953z"/>
	<path fill="#46B8E6" d="M111.152,147.692h-2.613v7.354h-1.397v-7.354h-2.596v-1.157h6.606V147.692z"/>
	<path fill="#46B8E6" d="M115.291,155.164c-0.467,0-0.894-0.077-1.279-0.233c-0.384-0.154-0.717-0.368-0.991-0.644
		c-0.275-0.273-0.488-0.594-0.64-0.966c-0.153-0.373-0.229-0.775-0.229-1.208v-0.24c0-0.503,0.08-0.955,0.243-1.354
		c0.16-0.402,0.376-0.745,0.649-1.031c0.273-0.284,0.587-0.503,0.946-0.654c0.361-0.152,0.74-0.229,1.139-0.229
		c0.459,0,0.865,0.079,1.216,0.232c0.353,0.151,0.644,0.369,0.88,0.647c0.236,0.281,0.415,0.61,0.535,0.992
		c0.12,0.382,0.181,0.801,0.181,1.257v0.593h-4.387c0.025,0.245,0.085,0.471,0.181,0.683c0.098,0.21,0.225,0.394,0.383,0.547
		c0.16,0.152,0.343,0.275,0.556,0.362s0.445,0.131,0.7,0.131c0.353,0,0.681-0.07,0.979-0.21c0.297-0.141,0.541-0.334,0.727-0.58
		l0.76,0.715c-0.101,0.151-0.232,0.299-0.392,0.44c-0.161,0.144-0.347,0.269-0.561,0.381c-0.215,0.11-0.454,0.2-0.722,0.27
		C115.901,155.133,115.607,155.164,115.291,155.164z M115.123,149.733c-0.195,0-0.375,0.034-0.544,0.104
		c-0.168,0.071-0.316,0.173-0.449,0.308c-0.134,0.134-0.246,0.298-0.338,0.491c-0.09,0.191-0.156,0.412-0.196,0.656h2.964v-0.104
		c-0.013-0.188-0.048-0.366-0.108-0.541c-0.06-0.174-0.149-0.33-0.265-0.465c-0.118-0.137-0.265-0.244-0.443-0.328
		C115.566,149.772,115.359,149.733,115.123,149.733z"/>
	<path fill="#46B8E6" d="M122.331,147.189v1.532h2.392v1.04h-2.392v3.034c0,0.237,0.029,0.434,0.085,0.59
		c0.057,0.158,0.136,0.281,0.237,0.377c0.102,0.092,0.22,0.157,0.356,0.193c0.136,0.039,0.287,0.057,0.45,0.057
		c0.122,0,0.247-0.007,0.377-0.021c0.129-0.015,0.257-0.031,0.38-0.046c0.123-0.019,0.237-0.037,0.341-0.06
		c0.102-0.022,0.19-0.042,0.26-0.062l0.157,0.966c-0.101,0.058-0.222,0.111-0.364,0.161c-0.143,0.047-0.298,0.09-0.466,0.118
		c-0.168,0.029-0.342,0.056-0.523,0.073c-0.182,0.019-0.359,0.026-0.535,0.026c-0.315,0-0.603-0.042-0.868-0.132
		c-0.263-0.086-0.49-0.221-0.678-0.406c-0.189-0.187-0.336-0.424-0.445-0.715c-0.107-0.294-0.16-0.64-0.16-1.045v-3.108h-1.543
		v-1.041h1.543v-1.529h1.396V147.189z"/>
	<path fill="#46B8E6" d="M131.06,148.604c0.113,0,0.226,0.006,0.341,0.014c0.114,0.008,0.221,0.02,0.324,0.034
		c0.102,0.015,0.199,0.031,0.282,0.05c0.084,0.018,0.158,0.037,0.219,0.061l-0.2,1.375c-0.43-0.098-0.85-0.146-1.27-0.146
		c-0.468,0-0.844,0.096-1.132,0.291c-0.288,0.193-0.497,0.465-0.634,0.812v3.953h-1.398v-6.328h1.31l0.065,0.989
		c0.258-0.343,0.562-0.612,0.914-0.81C130.235,148.703,130.627,148.604,131.06,148.604z"/>
	<path fill="#46B8E6" d="M137.936,155.047c-0.039-0.077-0.072-0.168-0.095-0.274c-0.025-0.105-0.05-0.219-0.068-0.338
		c-0.098,0.099-0.207,0.194-0.332,0.281c-0.122,0.085-0.258,0.164-0.407,0.23c-0.15,0.065-0.311,0.118-0.484,0.157
		c-0.175,0.039-0.36,0.059-0.56,0.059c-0.334,0-0.638-0.048-0.907-0.145c-0.271-0.095-0.503-0.227-0.698-0.396
		c-0.191-0.171-0.342-0.37-0.447-0.6c-0.103-0.229-0.155-0.479-0.155-0.748c0-0.679,0.253-1.197,0.758-1.555
		c0.503-0.356,1.229-0.538,2.171-0.538h1.022v-0.415c0-0.334-0.111-0.6-0.338-0.797c-0.229-0.198-0.546-0.296-0.961-0.296
		c-0.187,0-0.35,0.021-0.49,0.068c-0.141,0.045-0.257,0.105-0.35,0.185c-0.093,0.075-0.163,0.168-0.212,0.274
		c-0.048,0.105-0.07,0.219-0.07,0.34h-1.397c0-0.245,0.058-0.482,0.173-0.717c0.113-0.234,0.282-0.438,0.505-0.619
		c0.224-0.182,0.495-0.328,0.816-0.436c0.32-0.109,0.688-0.165,1.102-0.165c0.373,0,0.719,0.047,1.039,0.139
		c0.32,0.094,0.598,0.228,0.83,0.409c0.236,0.182,0.418,0.406,0.551,0.679c0.133,0.271,0.198,0.587,0.198,0.949v2.817
		c0,0.278,0.021,0.531,0.061,0.759c0.042,0.228,0.101,0.425,0.178,0.594v0.098H137.936L137.936,155.047z M136.252,154.035
		c0.18,0,0.347-0.021,0.504-0.066c0.16-0.044,0.302-0.102,0.428-0.176c0.127-0.07,0.236-0.155,0.33-0.249
		c0.091-0.092,0.163-0.187,0.217-0.283v-1.187h-0.889c-0.568,0-0.989,0.09-1.26,0.273c-0.271,0.183-0.407,0.445-0.407,0.784
		c0,0.129,0.023,0.248,0.065,0.357c0.041,0.111,0.108,0.208,0.195,0.286c0.089,0.079,0.199,0.145,0.336,0.19
		C135.905,154.013,136.064,154.035,136.252,154.035z"/>
	<path fill="#46B8E6" d="M143.887,147.189v1.532h2.392v1.04h-2.392v3.034c0,0.237,0.028,0.434,0.086,0.59
		c0.056,0.158,0.135,0.281,0.237,0.377c0.1,0.092,0.218,0.157,0.355,0.193c0.135,0.039,0.284,0.057,0.45,0.057
		c0.121,0,0.247-0.007,0.376-0.021c0.131-0.015,0.258-0.031,0.381-0.046c0.124-0.019,0.235-0.037,0.339-0.06
		c0.105-0.022,0.189-0.042,0.263-0.062l0.156,0.966c-0.1,0.058-0.223,0.111-0.366,0.161c-0.142,0.047-0.294,0.09-0.465,0.118
		c-0.169,0.029-0.343,0.056-0.525,0.073c-0.179,0.019-0.356,0.026-0.533,0.026c-0.314,0-0.604-0.042-0.867-0.132
		c-0.263-0.086-0.49-0.221-0.678-0.406c-0.189-0.187-0.338-0.424-0.445-0.715c-0.106-0.294-0.16-0.64-0.16-1.045v-3.108h-1.543
		v-1.041h1.543v-1.529h1.396V147.189z"/>
	<path fill="#46B8E6" d="M151.219,155.164c-0.468,0-0.894-0.077-1.279-0.233c-0.384-0.154-0.718-0.368-0.99-0.644
		c-0.274-0.273-0.488-0.594-0.641-0.966c-0.154-0.373-0.229-0.775-0.229-1.208v-0.24c0-0.503,0.08-0.955,0.243-1.354
		c0.16-0.402,0.378-0.745,0.648-1.031c0.271-0.284,0.587-0.503,0.947-0.654c0.36-0.152,0.739-0.229,1.138-0.229
		c0.461,0,0.866,0.079,1.217,0.232c0.353,0.151,0.646,0.369,0.88,0.647c0.235,0.281,0.413,0.61,0.535,0.992
		c0.121,0.382,0.181,0.801,0.181,1.257v0.593h-4.384c0.023,0.245,0.083,0.471,0.179,0.683c0.098,0.21,0.225,0.394,0.385,0.547
		c0.158,0.152,0.341,0.275,0.554,0.362c0.214,0.087,0.446,0.131,0.701,0.131c0.354,0,0.681-0.07,0.978-0.21
		c0.297-0.141,0.54-0.334,0.727-0.58l0.761,0.715c-0.099,0.151-0.23,0.299-0.393,0.44c-0.16,0.144-0.346,0.269-0.562,0.381
		c-0.215,0.11-0.454,0.2-0.72,0.27C151.826,155.133,151.534,155.164,151.219,155.164z M151.048,149.733
		c-0.193,0-0.374,0.034-0.542,0.104c-0.168,0.071-0.317,0.173-0.451,0.308c-0.133,0.134-0.243,0.298-0.338,0.491
		c-0.091,0.191-0.154,0.412-0.194,0.656h2.963v-0.104c-0.014-0.188-0.048-0.366-0.107-0.541c-0.061-0.174-0.149-0.33-0.267-0.465
		c-0.117-0.137-0.267-0.244-0.44-0.328C151.493,149.772,151.287,149.733,151.048,149.733z"/>
</g>
<linearGradient id="SVGID_1_" gradientUnits="userSpaceOnUse" x1="-2754.8423" y1="1631.4375" x2="-2702.4282" y2="1631.4375" gradientTransform="matrix(1 0 0 1 2776 -1502.5869)">
	<stop  offset="0" style="stop-color:#A6DDE8"/>
	<stop  offset="0.0825" style="stop-color:#99D7E5"/>
	<stop  offset="0.4645" style="stop-color:#77C7DB"/>
	<stop  offset="0.784" style="stop-color:#60C0D7"/>
	<stop  offset="1" style="stop-color:#57BED6"/>
</linearGradient>
<path fill="url(#SVGID_1_)" d="M71.956,112.791L48.982,99.529c-0.883-0.524-2.351-0.524-3.233,0l-22.974,13.261
	c-0.883,0.507-1.617,1.766-1.617,2.799v26.533c0,1.021,0.734,2.277,1.617,2.8l22.974,13.261c0.882,0.51,2.35,0.51,3.233,0
	l22.974-13.261c0.889-0.522,1.616-1.778,1.616-2.8v-26.533C73.572,114.556,72.842,113.298,71.956,112.791z M67.585,138.399
	c0,0.788-0.554,1.766-1.243,2.152l-17.735,10.237c-0.674,0.405-1.811,0.405-2.484,0l-17.736-10.237
	c-0.673-0.387-1.242-1.361-1.242-2.152v-20.476c0-0.792,0.568-1.766,1.242-2.155l17.736-10.237c0.673-0.389,1.811-0.389,2.484,0
	l17.735,10.237c0.689,0.39,1.243,1.363,1.243,2.155V138.399z"/>
<g>
	<path fill="#46B8E6" d="M101.114,128.571h4.924v7.777c-2.175,2.426-5.186,3.639-9.033,3.639c-3.22,0-5.924-1.065-8.109-3.2
		c-2.185-2.132-3.277-4.827-3.277-8.078c0-3.249,1.113-5.962,3.34-8.138c2.227-2.174,4.915-3.264,8.062-3.264
		c3.15,0,5.887,1.035,8.202,3.105l-2.541,3.669c-0.984-0.856-1.887-1.446-2.713-1.772c-0.833-0.325-1.72-0.486-2.682-0.486
		c-1.86,0-3.431,0.633-4.709,1.897c-1.276,1.266-1.914,2.933-1.914,5.003c0,2.069,0.612,3.727,1.841,4.969
		c1.219,1.246,2.682,1.867,4.376,1.867c1.693,0,3.104-0.325,4.234-0.971v-6.019H101.114z"/>
	<path fill="#46B8E6" d="M124.544,137.289c-1.903,1.797-4.141,2.697-6.702,2.697c-2.562,0-4.679-0.785-6.352-2.367
		c-1.668-1.579-2.51-3.695-2.51-6.352c0-2.653,0.852-4.767,2.556-6.334c1.705-1.567,3.717-2.351,6.038-2.351s4.293,0.7,5.913,2.101
		c1.621,1.401,2.432,3.326,2.432,5.768v2.511h-12.293c0.146,0.922,0.628,1.672,1.443,2.261c0.814,0.588,1.729,0.877,2.76,0.877
		c1.651,0,3.011-0.549,4.078-1.657L124.544,137.289z M120.027,127.282c-0.647-0.542-1.437-0.816-2.367-0.816
		c-0.932,0-1.778,0.283-2.557,0.847c-0.774,0.566-1.218,1.329-1.344,2.291h7.397C121.052,128.6,120.675,127.828,120.027,127.282z"/>
	<path fill="#46B8E6" d="M134.739,126.249v7.56c0,0.646,0.166,1.154,0.501,1.52c0.334,0.366,0.731,0.547,1.191,0.547
		c0.878,0,1.621-0.395,2.228-1.189l1.756,3.291c-1.464,1.34-3.006,2.009-4.626,2.009s-2.99-0.531-4.109-1.598
		c-1.119-1.069-1.678-2.521-1.678-4.358v-7.776h-1.977v-3.39h1.977v-5.05h4.737v5.05h4.078v3.389L134.739,126.249L134.739,126.249z"
		/>
	<path fill="#46B8E6" d="M159.201,117.81v4.359h-10.915v4.522h9.821v4.168h-9.824v4.551h11.261v4.33h-16.149v-21.927L159.201,117.81
		L159.201,117.81z"/>
	<path fill="#46B8E6" d="M167.985,130.324v9.411h-4.704V122.86h4.704v1.882c1.423-1.442,3.026-2.164,4.799-2.164
		c1.78,0,3.275,0.627,4.47,1.882c1.204,1.254,1.804,2.928,1.804,5.02v10.257h-4.708v-9.535c0-2.591-0.951-3.888-2.849-3.888
		c-0.946,0-1.768,0.339-2.465,1.019C168.336,128.011,167.985,129.009,167.985,130.324z"/>
	<path fill="#46B8E6" d="M187.59,139.735l-6.688-16.904h4.896l4.203,10.633l4.208-10.633h4.896l-6.682,16.904H187.59z"/>
	<path fill="#46B8E6" d="M217.921,131.299c0,2.447-0.846,4.505-2.54,6.179c-1.693,1.674-3.822,2.509-6.383,2.509
		c-2.562,0-4.689-0.835-6.388-2.509c-1.695-1.674-2.536-3.731-2.536-6.179c0-2.448,0.843-4.517,2.536-6.195
		c1.698-1.684,3.826-2.527,6.388-2.527c2.561,0,4.689,0.843,6.383,2.527C217.074,126.786,217.921,128.851,217.921,131.299z
		 M204.81,131.299c0,1.379,0.394,2.506,1.179,3.37c0.778,0.869,1.78,1.302,3.01,1.302c1.22,0,2.228-0.433,3.012-1.302
		c0.783-0.864,1.177-1.991,1.177-3.37s-0.394-2.51-1.177-3.389c-0.779-0.879-1.788-1.318-3.012-1.318
		c-1.225,0-2.228,0.439-3.01,1.318C205.203,128.789,204.81,129.92,204.81,131.299z"/>
	<path fill="#46B8E6" d="M223.913,146.386c-1.653,0-3.21-0.669-4.675-2.008l2.135-3.481c0.793,0.773,1.608,1.155,2.445,1.155
		c0.445,0,0.822-0.214,1.135-0.643c0.314-0.43,0.469-0.887,0.469-1.364c0-0.48-2.176-6.206-6.521-17.188h5.021l4.109,10.51
		l4.106-10.51h5.021l-7.835,19.886c-0.468,1.153-1.178,2.043-2.153,2.682C226.188,146.067,225.104,146.386,223.913,146.386z"/>
</g>
</svg>
