<?xml version="1.0" encoding="utf-8"?>
<!-- Generator: Adobe Illustrator 16.2.0, SVG Export Plug-In . SVG Version: 6.00 Build 0)  -->
<!DOCTYPE svg PUBLIC "-//W3C//DTD SVG 1.1//EN" "http://www.w3.org/Graphics/SVG/1.1/DTD/svg11.dtd">
<svg version="1.1" id="Layer_1" xmlns="http://www.w3.org/2000/svg" xmlns:xlink="http://www.w3.org/1999/xlink" x="0px" y="0px"
	 width="214.951px" height="104.884px" viewBox="0 0 214.951 104.884" enable-background="new 0 0 214.951 104.884"
	 xml:space="preserve">
<g>
	<g>
		
			<linearGradient id="SVGID_1_" gradientUnits="userSpaceOnUse" x1="-1388" y1="26.0669" x2="-1295.4902" y2="26.0669" gradientTransform="matrix(1 0 0 1 1388 26.375)">
			<stop  offset="0" style="stop-color:#A4DCE8"/>
			<stop  offset="0.0825" style="stop-color:#99D7E5"/>
			<stop  offset="0.4645" style="stop-color:#77C7DB"/>
			<stop  offset="0.784" style="stop-color:#5FC0D7"/>
			<stop  offset="1" style="stop-color:#55BDD6"/>
		</linearGradient>
		<path fill="url(#SVGID_1_)" d="M92.51,75.852c0,1.813-1.284,4.038-2.854,4.944l-40.546,23.408c-1.57,0.906-4.139,0.906-5.709,0
			L2.854,80.796C1.284,79.89,0,77.665,0,75.852V29.033c0-1.813,1.284-4.037,2.854-4.944L43.4,0.68c1.57-0.906,4.139-0.906,5.709,0
			l40.546,23.409c1.57,0.907,2.854,3.131,2.854,4.944V75.852z"/>
		<path fill="none" stroke="#FFFFFF" stroke-width="0.1648" stroke-miterlimit="10" d="M92.51,75.852
			c0,1.813-1.284,4.038-2.854,4.944l-40.546,23.408c-1.57,0.906-4.139,0.906-5.709,0L2.854,80.796C1.284,79.89,0,77.665,0,75.852
			V29.033c0-1.813,1.284-4.037,2.854-4.944L43.4,0.68c1.57-0.906,4.139-0.906,5.709,0l40.546,23.409
			c1.57,0.907,2.854,3.131,2.854,4.944V75.852z"/>
	</g>
</g>
<g>
	<path fill="#4AB6E4" d="M124.062,32.32h3.29v5.197c-1.453,1.621-3.465,2.431-6.035,2.431c-2.151,0-3.958-0.712-5.418-2.138
		s-2.189-3.224-2.189-5.396c0-2.172,0.744-3.985,2.231-5.438c1.488-1.453,3.283-2.18,5.387-2.18c2.103,0,3.929,0.691,5.479,2.075
		l-1.697,2.452c-0.657-0.573-1.261-0.967-1.813-1.184c-0.553-0.217-1.149-0.325-1.792-0.325c-1.243,0-2.292,0.422-3.144,1.268
		c-0.853,0.846-1.278,1.959-1.278,3.343c0,1.383,0.408,2.49,1.226,3.321c0.817,0.832,1.792,1.247,2.924,1.247
		s2.074-0.216,2.829-0.649V32.32z"/>
	<path fill="#4AB6E4" d="M139.716,38.146c-1.271,1.202-2.763,1.803-4.474,1.803c-1.712,0-3.126-0.527-4.244-1.582
		s-1.677-2.47-1.677-4.244c0-1.774,0.569-3.186,1.708-4.233c1.139-1.047,2.483-1.571,4.034-1.571s2.868,0.468,3.95,1.404
		c1.083,0.936,1.625,2.222,1.625,3.856v1.677h-8.215c0.097,0.615,0.419,1.118,0.964,1.509c0.544,0.391,1.159,0.587,1.844,0.587
		c1.104,0,2.012-0.37,2.725-1.111L139.716,38.146z M136.698,31.461c-0.433-0.363-0.96-0.545-1.582-0.545s-1.191,0.188-1.708,0.565
		c-0.517,0.377-0.817,0.888-0.901,1.53h4.946C137.383,32.341,137.131,31.824,136.698,31.461z"/>
	<path fill="#4AB6E4" d="M146.527,30.769v5.051c0,0.433,0.111,0.772,0.335,1.016c0.224,0.245,0.489,0.367,0.796,0.367
		c0.587,0,1.083-0.265,1.488-0.796l1.174,2.2c-0.979,0.894-2.009,1.341-3.091,1.341c-1.083,0-1.998-0.356-2.746-1.069
		c-0.747-0.712-1.121-1.684-1.121-2.913v-5.197h-1.32v-2.263h1.32v-3.374h3.165v3.374h2.725v2.263H146.527z"/>
	<path fill="#4AB6E4" d="M162.873,25.132v2.913h-7.293v3.018h6.56v2.787h-6.56v3.039h7.523v2.892h-10.793V25.132H162.873z"/>
	<path fill="#4AB6E4" d="M168.741,33.493v6.287h-3.144V28.506h3.144v1.257c0.95-0.964,2.019-1.446,3.206-1.446
		s2.184,0.419,2.986,1.257c0.804,0.838,1.205,1.956,1.205,3.353v6.853h-3.144V33.41c0-1.732-0.636-2.599-1.907-2.599
		c-0.628,0-1.177,0.227-1.645,0.681C168.975,31.946,168.741,32.613,168.741,33.493z"/>
	<path fill="#4AB6E4" d="M181.839,39.78l-4.464-11.295h3.27l2.809,7.104l2.808-7.104h3.27l-4.464,11.295H181.839z"/>
	<path fill="#4AB6E4" d="M202.104,34.143c0,1.635-0.565,3.011-1.697,4.128c-1.132,1.118-2.554,1.677-4.265,1.677
		c-1.712,0-3.133-0.559-4.265-1.677c-1.132-1.118-1.697-2.494-1.697-4.128s0.565-3.014,1.697-4.139s2.553-1.687,4.265-1.687
		c1.711,0,3.133,0.563,4.265,1.687S202.104,32.508,202.104,34.143z M193.345,34.143c0,0.922,0.262,1.673,0.786,2.253
		c0.523,0.58,1.194,0.87,2.012,0.87s1.488-0.29,2.012-0.87c0.523-0.58,0.786-1.331,0.786-2.253s-0.263-1.676-0.786-2.263
		S196.96,31,196.143,31s-1.488,0.293-2.012,0.88C193.606,32.467,193.345,33.221,193.345,34.143z"/>
	<path fill="#4AB6E4" d="M206.107,44.224c-1.104,0-2.145-0.447-3.123-1.342l1.426-2.326c0.53,0.517,1.075,0.775,1.634,0.775
		c0.294,0,0.546-0.143,0.755-0.429c0.21-0.287,0.314-0.591,0.314-0.912c0-0.321-1.453-4.149-4.359-11.484h3.354l2.745,7.021
		l2.745-7.021h3.354l-5.239,13.287c-0.308,0.768-0.786,1.365-1.436,1.792S206.903,44.224,206.107,44.224z"/>
</g>
</svg>
