<?xml version="1.0" encoding="utf-8"?>
<!-- Generator: Adobe Illustrator 16.2.0, SVG Export Plug-In . SVG Version: 6.00 Build 0)  -->
<!DOCTYPE svg PUBLIC "-//W3C//DTD SVG 1.1//EN" "http://www.w3.org/Graphics/SVG/1.1/DTD/svg11.dtd">
<svg version="1.1" id="Layer_1" xmlns="http://www.w3.org/2000/svg" xmlns:xlink="http://www.w3.org/1999/xlink" x="0px" y="0px"
	 width="144.311px" height="158.677px" viewBox="0 0 144.311 158.677" enable-background="new 0 0 144.311 158.677"
	 xml:space="preserve">
<g>
	<g>
		<g>
			
				<linearGradient id="SVGID_1_" gradientUnits="userSpaceOnUse" x1="-2743.3132" y1="1454.7229" x2="-2664.3796" y2="1454.7229" gradientTransform="matrix(1 0 0 1 2776 -1395.9395)">
				<stop  offset="0" style="stop-color:#A4DCE8"/>
				<stop  offset="0.0825" style="stop-color:#99D7E5"/>
				<stop  offset="0.4645" style="stop-color:#77C7DB"/>
				<stop  offset="0.784" style="stop-color:#5FC0D7"/>
				<stop  offset="1" style="stop-color:#55BDD6"/>
			</linearGradient>
			<path fill="url(#SVGID_1_)" d="M109.184,34.598L74.588,14.627c-1.329-0.788-3.539-0.788-4.868,0L35.123,34.598
				c-1.329,0.765-2.437,2.658-2.437,4.215v39.955c0,1.539,1.105,3.431,2.437,4.218l34.597,19.969c1.329,0.767,3.539,0.767,4.868,0
				l34.596-19.969c1.334-0.787,2.437-2.679,2.437-4.218V38.813C111.618,37.256,110.518,35.363,109.184,34.598z M102.603,73.162
				c0,1.189-0.834,2.659-1.871,3.242L74.025,91.822c-1.015,0.61-2.727,0.61-3.74,0L43.575,76.406
				c-1.017-0.583-1.871-2.053-1.871-3.242V42.327c0-1.194,0.854-2.659,1.871-3.246l26.707-15.416c1.016-0.586,2.728-0.586,3.74,0
				l26.707,15.416c1.037,0.587,1.871,2.052,1.871,3.246L102.603,73.162L102.603,73.162z"/>
			<path fill="none" stroke="#FFFFFF" stroke-width="0.1406" stroke-miterlimit="10" d="M109.184,34.598L74.588,14.627
				c-1.329-0.788-3.539-0.788-4.868,0L35.123,34.598c-1.329,0.765-2.437,2.658-2.437,4.215v39.955c0,1.539,1.105,3.431,2.437,4.218
				l34.597,19.969c1.329,0.767,3.539,0.767,4.868,0l34.596-19.969c1.334-0.787,2.437-2.679,2.437-4.218V38.813
				C111.618,37.256,110.518,35.363,109.184,34.598z M102.603,73.162c0,1.189-0.834,2.659-1.871,3.242L74.025,91.822
				c-1.015,0.61-2.727,0.61-3.74,0L43.575,76.406c-1.017-0.583-1.871-2.053-1.871-3.242V42.327c0-1.194,0.854-2.659,1.871-3.246
				l26.707-15.416c1.016-0.586,2.728-0.586,3.74,0l26.707,15.416c1.037,0.587,1.871,2.052,1.871,3.246L102.603,73.162
				L102.603,73.162z"/>
		</g>
	</g>
	<g>
		<path fill="#4AB6E4" d="M31.884,120.415h3.29v5.195c-1.453,1.621-3.465,2.433-6.035,2.433c-2.149,0-3.958-0.713-5.418-2.139
			c-1.46-1.425-2.188-3.225-2.188-5.396s0.742-3.982,2.229-5.438c1.488-1.451,3.283-2.18,5.387-2.18c2.104,0,3.933,0.69,5.479,2.073
			l-1.697,2.452c-0.657-0.571-1.261-0.967-1.813-1.186c-0.557-0.217-1.149-0.323-1.792-0.323c-1.243,0-2.292,0.423-3.146,1.268
			c-0.853,0.847-1.277,1.961-1.277,3.345c0,1.383,0.407,2.488,1.229,3.318c0.816,0.832,1.792,1.248,2.924,1.248
			s2.074-0.217,2.829-0.648L31.884,120.415L31.884,120.415z"/>
		<path fill="#4AB6E4" d="M47.538,126.24c-1.271,1.2-2.767,1.803-4.478,1.803c-1.712,0-3.126-0.524-4.244-1.582
			c-1.114-1.055-1.677-2.469-1.677-4.244c0-1.771,0.569-3.185,1.708-4.231c1.14-1.047,2.483-1.569,4.034-1.569
			s2.868,0.468,3.95,1.403c1.083,0.937,1.625,2.223,1.625,3.854v1.679h-8.215c0.097,0.614,0.419,1.117,0.964,1.511
			c0.544,0.392,1.156,0.586,1.844,0.586c1.104,0,2.012-0.368,2.725-1.108L47.538,126.24z M44.521,119.555
			c-0.433-0.363-0.96-0.545-1.582-0.545s-1.188,0.188-1.708,0.564c-0.517,0.378-0.813,0.888-0.897,1.529h4.942
			C45.205,120.436,44.953,119.918,44.521,119.555z"/>
		<path fill="#4AB6E4" d="M54.35,118.865v5.051c0,0.433,0.111,0.771,0.335,1.017c0.226,0.243,0.489,0.364,0.796,0.364
			c0.587,0,1.083-0.264,1.488-0.795l1.174,2.199c-0.979,0.896-2.009,1.342-3.091,1.342c-1.083,0-1.998-0.354-2.746-1.066
			c-0.747-0.714-1.121-1.686-1.121-2.912v-5.196h-1.318v-2.266h1.318v-3.375h3.165v3.375h2.727v2.265L54.35,118.865L54.35,118.865z"
			/>
		<path fill="#4AB6E4" d="M70.696,113.227v2.912h-7.294v3.021h6.563v2.787h-6.563v3.038h7.523v2.893H60.133v-14.649L70.696,113.227
			L70.696,113.227z"/>
		<path fill="#4AB6E4" d="M76.564,121.586v6.287H73.42V116.6h3.144v1.258c0.95-0.963,2.021-1.444,3.206-1.444
			c1.188,0,2.188,0.419,2.986,1.258c0.804,0.838,1.205,1.956,1.205,3.354v6.854h-3.146v-6.371c0-1.729-0.636-2.598-1.903-2.598
			c-0.63,0-1.181,0.228-1.646,0.681C76.797,120.041,76.564,120.708,76.564,121.586z"/>
		<path fill="#4AB6E4" d="M89.661,127.875l-4.466-11.294h3.271l2.809,7.104l2.812-7.104h3.27l-4.464,11.294H89.661z"/>
		<path fill="#4AB6E4" d="M109.927,122.24c0,1.635-0.564,3.01-1.697,4.129c-1.132,1.116-2.554,1.676-4.265,1.676
			c-1.712,0-3.133-0.56-4.267-1.676c-1.134-1.119-1.695-2.494-1.695-4.129c0-1.636,0.563-3.017,1.695-4.14
			c1.134-1.125,2.555-1.688,4.267-1.688c1.711,0,3.133,0.563,4.265,1.688C109.361,119.223,109.927,120.604,109.927,122.24z
			 M101.167,122.24c0,0.922,0.262,1.674,0.786,2.252c0.521,0.58,1.19,0.868,2.012,0.868c0.816,0,1.488-0.288,2.012-0.868
			c0.523-0.578,0.786-1.33,0.786-2.252c0-0.923-0.263-1.679-0.786-2.265c-0.521-0.588-1.192-0.881-2.012-0.881
			s-1.488,0.293-2.012,0.881C101.429,120.561,101.167,121.317,101.167,122.24z"/>
		<path fill="#4AB6E4" d="M113.93,132.319c-1.104,0-2.145-0.446-3.123-1.342l1.426-2.326c0.53,0.519,1.075,0.773,1.636,0.773
			c0.296,0,0.548-0.143,0.757-0.43c0.21-0.287,0.313-0.592,0.313-0.912c0-0.319-1.453-4.146-4.355-11.482h3.354l2.745,7.021
			l2.745-7.021h3.354l-5.237,13.286c-0.312,0.77-0.786,1.364-1.438,1.791C115.449,132.106,114.726,132.319,113.93,132.319z"/>
	</g>
</g>
<g>
	<path fill="#46B8E6" d="M44.531,139.134c0.587,0,1.099,0.23,1.536,0.688s0.655,1.045,0.655,1.766c0,0.717-0.224,1.319-0.672,1.805
		c-0.45,0.483-0.96,0.726-1.532,0.726c-0.572,0-1.047-0.234-1.423-0.709v0.639h-1.346v-6.663h1.346v2.369
		C43.464,139.342,43.944,139.134,44.531,139.134z M43.076,141.636c0,0.395,0.11,0.714,0.328,0.962
		c0.219,0.248,0.484,0.372,0.795,0.372c0.311,0,0.583-0.124,0.817-0.372c0.233-0.248,0.35-0.566,0.35-0.957
		c0-0.392-0.113-0.715-0.342-0.979c-0.227-0.264-0.5-0.396-0.817-0.396s-0.584,0.129-0.804,0.393
		C43.185,140.919,43.076,141.243,43.076,141.636z"/>
	<path fill="#46B8E6" d="M48.464,145.953c-0.472,0-0.918-0.194-1.337-0.577l0.61-0.997c0.227,0.221,0.46,0.335,0.7,0.335
		c0.126,0,0.234-0.063,0.323-0.185c0.09-0.124,0.135-0.256,0.135-0.394s-0.623-1.778-1.868-4.92h1.437l1.176,3.009l1.177-3.009
		h1.437l-2.246,5.693c-0.131,0.331-0.336,0.585-0.615,0.769C49.116,145.86,48.806,145.953,48.464,145.953z"/>
	<path fill="#46B8E6" d="M62.152,136.692h-2.613v7.354h-1.397v-7.354h-2.596v-1.156h6.606V136.692z"/>
	<path fill="#46B8E6" d="M66.291,144.164c-0.467,0-0.894-0.077-1.279-0.232c-0.384-0.154-0.717-0.369-0.991-0.645
		c-0.275-0.273-0.488-0.594-0.64-0.966c-0.153-0.373-0.229-0.775-0.229-1.208v-0.24c0-0.503,0.08-0.955,0.243-1.354
		c0.16-0.402,0.376-0.746,0.649-1.031c0.273-0.284,0.587-0.504,0.946-0.654c0.361-0.152,0.74-0.229,1.139-0.229
		c0.459,0,0.865,0.078,1.216,0.231c0.353,0.151,0.644,0.369,0.88,0.647c0.236,0.281,0.415,0.609,0.535,0.992
		c0.12,0.381,0.181,0.801,0.181,1.256v0.594h-4.387c0.025,0.245,0.085,0.471,0.181,0.683c0.098,0.21,0.225,0.394,0.383,0.548
		c0.16,0.151,0.343,0.274,0.556,0.361c0.213,0.087,0.445,0.131,0.7,0.131c0.353,0,0.681-0.07,0.979-0.21
		c0.297-0.141,0.541-0.334,0.727-0.58l0.76,0.716c-0.101,0.15-0.232,0.299-0.392,0.439c-0.161,0.145-0.347,0.27-0.561,0.381
		c-0.215,0.11-0.454,0.2-0.722,0.27C66.901,144.133,66.607,144.164,66.291,144.164z M66.123,138.733
		c-0.195,0-0.375,0.035-0.544,0.104c-0.168,0.071-0.316,0.173-0.449,0.308c-0.134,0.135-0.246,0.299-0.338,0.491
		c-0.09,0.191-0.156,0.412-0.196,0.656h2.964v-0.104c-0.013-0.188-0.048-0.365-0.108-0.541c-0.06-0.174-0.149-0.33-0.265-0.465
		c-0.118-0.137-0.265-0.244-0.443-0.328C66.566,138.772,66.359,138.733,66.123,138.733z"/>
	<path fill="#46B8E6" d="M73.331,136.19v1.531h2.393v1.04h-2.393v3.034c0,0.237,0.029,0.434,0.085,0.59
		c0.058,0.158,0.136,0.281,0.237,0.377c0.102,0.092,0.22,0.157,0.355,0.193c0.137,0.039,0.287,0.057,0.45,0.057
		c0.122,0,0.247-0.007,0.377-0.021c0.129-0.015,0.257-0.031,0.38-0.046c0.123-0.02,0.237-0.037,0.342-0.061
		c0.102-0.021,0.189-0.042,0.26-0.062l0.156,0.966c-0.101,0.058-0.222,0.111-0.363,0.161c-0.144,0.047-0.299,0.09-0.467,0.118
		s-0.342,0.056-0.522,0.072c-0.183,0.02-0.359,0.026-0.535,0.026c-0.315,0-0.603-0.042-0.868-0.132
		c-0.263-0.086-0.49-0.221-0.678-0.406c-0.189-0.188-0.336-0.424-0.445-0.715c-0.107-0.294-0.16-0.641-0.16-1.045v-3.108h-1.543
		v-1.041h1.543v-1.528h1.396V136.19z"/>
	<path fill="#46B8E6" d="M82.061,137.604c0.112,0,0.226,0.006,0.34,0.015c0.115,0.008,0.222,0.021,0.324,0.034
		c0.103,0.015,0.199,0.031,0.282,0.05c0.084,0.018,0.158,0.037,0.22,0.062l-0.201,1.375c-0.43-0.099-0.85-0.146-1.27-0.146
		c-0.468,0-0.844,0.096-1.132,0.291c-0.288,0.193-0.497,0.465-0.634,0.812v3.953h-1.398v-6.328h1.311l0.064,0.989
		c0.258-0.343,0.563-0.611,0.914-0.811C81.235,137.703,81.627,137.604,82.061,137.604z"/>
	<path fill="#46B8E6" d="M88.936,144.047c-0.039-0.077-0.071-0.168-0.095-0.273c-0.024-0.105-0.05-0.22-0.067-0.338
		c-0.099,0.099-0.207,0.193-0.332,0.28c-0.123,0.085-0.258,0.164-0.407,0.23c-0.15,0.064-0.312,0.118-0.484,0.157
		c-0.175,0.039-0.36,0.059-0.56,0.059c-0.334,0-0.639-0.048-0.907-0.145c-0.271-0.096-0.503-0.228-0.698-0.396
		c-0.191-0.171-0.342-0.37-0.447-0.6c-0.103-0.229-0.154-0.479-0.154-0.748c0-0.68,0.253-1.197,0.758-1.556
		c0.503-0.355,1.229-0.538,2.171-0.538h1.022v-0.414c0-0.334-0.111-0.601-0.338-0.798c-0.229-0.198-0.547-0.296-0.961-0.296
		c-0.188,0-0.351,0.021-0.49,0.068c-0.141,0.045-0.258,0.104-0.35,0.185c-0.094,0.075-0.164,0.168-0.213,0.274
		c-0.048,0.104-0.07,0.219-0.07,0.34h-1.396c0-0.245,0.059-0.482,0.173-0.717c0.113-0.234,0.282-0.438,0.505-0.619
		c0.225-0.182,0.495-0.328,0.816-0.436c0.32-0.109,0.688-0.166,1.102-0.166c0.373,0,0.719,0.047,1.039,0.14
		c0.32,0.094,0.598,0.228,0.83,0.409c0.236,0.182,0.418,0.406,0.551,0.679c0.133,0.271,0.198,0.587,0.198,0.949v2.816
		c0,0.278,0.021,0.531,0.062,0.759c0.041,0.229,0.101,0.426,0.178,0.595v0.098L88.936,144.047L88.936,144.047z M87.252,143.035
		c0.18,0,0.348-0.021,0.504-0.066c0.16-0.044,0.303-0.102,0.428-0.176c0.127-0.07,0.236-0.154,0.33-0.249
		c0.092-0.092,0.163-0.187,0.217-0.283v-1.187h-0.889c-0.568,0-0.988,0.09-1.26,0.273c-0.271,0.183-0.407,0.444-0.407,0.783
		c0,0.129,0.023,0.248,0.065,0.357c0.041,0.111,0.107,0.208,0.195,0.285c0.088,0.08,0.198,0.146,0.336,0.19
		C86.906,143.013,87.065,143.035,87.252,143.035z"/>
	<path fill="#46B8E6" d="M94.887,136.19v1.531h2.393v1.04h-2.393v3.034c0,0.237,0.028,0.434,0.086,0.59
		c0.057,0.158,0.135,0.281,0.237,0.377c0.101,0.092,0.218,0.157,0.354,0.193c0.136,0.039,0.285,0.057,0.451,0.057
		c0.12,0,0.246-0.007,0.375-0.021c0.131-0.015,0.258-0.031,0.381-0.046c0.125-0.02,0.235-0.037,0.34-0.061
		c0.104-0.021,0.188-0.042,0.263-0.062l0.156,0.966c-0.101,0.058-0.224,0.111-0.366,0.161c-0.143,0.047-0.294,0.09-0.465,0.118
		c-0.169,0.028-0.344,0.056-0.525,0.072c-0.179,0.02-0.355,0.026-0.533,0.026c-0.313,0-0.604-0.042-0.867-0.132
		c-0.263-0.086-0.489-0.221-0.678-0.406c-0.188-0.188-0.338-0.424-0.445-0.715c-0.105-0.294-0.159-0.641-0.159-1.045v-3.108h-1.543
		v-1.041h1.543v-1.528h1.396V136.19z"/>
	<path fill="#46B8E6" d="M102.219,144.164c-0.468,0-0.894-0.077-1.279-0.232c-0.383-0.154-0.717-0.369-0.989-0.645
		c-0.274-0.273-0.488-0.594-0.642-0.966c-0.154-0.373-0.229-0.775-0.229-1.208v-0.24c0-0.503,0.08-0.955,0.243-1.354
		c0.159-0.402,0.378-0.746,0.647-1.031c0.271-0.284,0.588-0.504,0.947-0.654c0.359-0.152,0.739-0.229,1.139-0.229
		c0.461,0,0.865,0.078,1.217,0.231c0.353,0.151,0.646,0.369,0.879,0.647c0.235,0.281,0.414,0.609,0.535,0.992
		c0.121,0.381,0.182,0.801,0.182,1.256v0.594h-4.385c0.023,0.245,0.084,0.471,0.18,0.683c0.098,0.21,0.225,0.394,0.385,0.548
		c0.158,0.151,0.342,0.274,0.555,0.361s0.445,0.131,0.7,0.131c0.354,0,0.681-0.07,0.979-0.21c0.297-0.141,0.54-0.334,0.727-0.58
		l0.761,0.716c-0.099,0.15-0.229,0.299-0.393,0.439c-0.16,0.145-0.346,0.27-0.563,0.381c-0.215,0.11-0.453,0.2-0.72,0.27
		C102.826,144.133,102.534,144.164,102.219,144.164z M102.048,138.733c-0.192,0-0.374,0.035-0.542,0.104
		c-0.168,0.071-0.316,0.173-0.451,0.308c-0.133,0.135-0.242,0.299-0.338,0.491c-0.091,0.191-0.154,0.412-0.193,0.656h2.963v-0.104
		c-0.014-0.188-0.049-0.365-0.107-0.541c-0.061-0.174-0.148-0.33-0.268-0.465c-0.116-0.137-0.267-0.244-0.439-0.328
		C102.493,138.772,102.287,138.733,102.048,138.733z"/>
</g>
</svg>
