<svg xmlns="http://www.w3.org/2000/svg" xmlns:xlink="http://www.w3.org/1999/xlink" id="Layer_1" viewBox="0 0 622.5 265.9"><style>.st0{opacity:.8}.st1{clip-path:url(#SVGID_2_);fill:#fff}.st2{clip-path:url(#SVGID_4_)}.st2,.st3,.st4{fill:#fff}.st4{fill-rule:evenodd;clip-rule:evenodd}.st5{opacity:.8;fill:#fff}.st6{clip-path:url(#SVGID_6_);fill:#fff}</style><g class="st0"><defs><path id="SVGID_1_" d="M423.5 244.4h195.6v1H423.5z"/></defs><use xlink:href="#SVGID_1_" overflow="visible" fill="#fff"/><clipPath id="SVGID_2_"><use xlink:href="#SVGID_1_" overflow="visible"/></clipPath><path class="st1" d="M423.5 244.4h195.6v1H423.5z"/></g><g class="st0"><defs><path id="SVGID_3_" d="M2.7 244.4H194v1H2.7z"/></defs><use xlink:href="#SVGID_3_" overflow="visible" fill="#fff"/><clipPath id="SVGID_4_"><use xlink:href="#SVGID_3_" overflow="visible"/></clipPath><path class="st2" d="M2.7 244.4H194v1H2.7z"/></g><path class="st3" d="M175.8 176.5c1.1-.3 2.4-.6 4.1-.9 1.7-.3 3.4-.4 5.2-.4 1.9 0 3.4.2 4.6.7 1.2.5 2.2 1.2 2.9 2.1.7.9 1.2 1.9 1.5 3.2s.5 2.6.5 4.1v12.4h-6.2V186c0-2-.3-3.4-.8-4.2-.5-.8-1.5-1.2-3-1.2-.4 0-.9 0-1.4.1-.5 0-.9.1-1.3.1v16.9h-6.2v-21.2zm-11.5 10.1c0-1.9-.4-3.4-1.1-4.5-.8-1.1-1.9-1.6-3.3-1.6s-2.5.5-3.3 1.6c-.8 1.1-1.2 2.6-1.2 4.5s.4 3.4 1.2 4.6c.8 1.1 1.9 1.7 3.3 1.7s2.5-.6 3.3-1.7c.7-1.1 1.1-2.7 1.1-4.6m6.3 0c0 1.7-.2 3.3-.7 4.7-.5 1.4-1.2 2.6-2.2 3.7-.9 1-2.1 1.8-3.4 2.4-1.3.6-2.8.8-4.4.8-1.6 0-3.1-.3-4.4-.8-1.3-.6-2.4-1.3-3.4-2.4-.9-1-1.7-2.2-2.2-3.7-.5-1.4-.8-3-.8-4.7s.3-3.3.8-4.7c.5-1.4 1.3-2.6 2.2-3.6 1-1 2.1-1.8 3.4-2.3 1.3-.6 2.8-.8 4.3-.8 1.6 0 3 .3 4.3.8 1.3.6 2.4 1.3 3.4 2.3.9 1 1.7 2.2 2.2 3.6.7 1.4.9 3 .9 4.7M137 198.2c-4.7 0-8.3-1.3-10.7-3.9-2.5-2.6-3.7-6.3-3.7-11.1 0-2.4.4-4.5 1.1-6.4.7-1.9 1.8-3.5 3.1-4.7 1.3-1.3 2.9-2.3 4.7-2.9 1.8-.7 3.8-1 5.9-1 1.2 0 2.3.1 3.3.3 1 .2 1.9.4 2.6.6.7.2 1.4.5 1.9.7.5.2.9.4 1.1.6l-1.9 5.2c-.9-.5-1.9-.9-3.1-1.2-1.2-.3-2.5-.5-4-.5-1 0-2 .2-2.9.5-1 .3-1.8.9-2.5 1.6-.7.7-1.3 1.7-1.8 2.8-.4 1.2-.7 2.6-.7 4.2 0 1.3.1 2.6.4 3.7.3 1.2.8 2.1 1.4 3 .7.8 1.5 1.5 2.6 2s2.3.7 3.8.7c.9 0 1.8-.1 2.5-.2.8-.1 1.4-.2 2-.4.6-.2 1.1-.3 1.5-.5.4-.2.8-.4 1.2-.5l1.8 5.2c-.9.6-2.2 1.1-3.9 1.5-1.6.5-3.6.7-5.7.7m-24.7-13.7c0-.5-.1-1-.3-1.5-.2-.5-.4-.9-.7-1.3-.3-.4-.7-.7-1.2-1-.5-.2-1.1-.4-1.8-.4s-1.3.1-1.8.4c-.5.2-.9.5-1.2.9s-.6.8-.8 1.4c-.2.5-.3 1-.4 1.6h8.2zm-14.6 2.3c0-1.9.3-3.6.9-5.1.6-1.5 1.4-2.7 2.4-3.6 1-1 2.1-1.7 3.3-2.2 1.3-.5 2.6-.7 3.9-.7 3.1 0 5.6.9 7.4 2.8 1.8 1.9 2.7 4.7 2.7 8.4v1.2c0 .4-.1.8-.1 1.1h-14.1c.1 1.3.7 2.3 1.8 3 1.1.7 2.5 1.1 4.2 1.1 1.1 0 2.3-.1 3.3-.3 1.1-.2 2-.5 2.7-.8l.8 5c-.3.2-.8.3-1.3.5-.6.2-1.2.3-1.9.4-.7.1-1.4.2-2.2.3-.8.1-1.6.1-2.3.1-2 0-3.7-.3-5.1-.9-1.5-.6-2.7-1.4-3.6-2.4-1-1-1.7-2.2-2.1-3.6-.4-1.2-.7-2.7-.7-4.3m-4-.1c0 1.7-.3 3.3-.8 4.7-.5 1.4-1.3 2.6-2.2 3.6-1 1-2.2 1.8-3.6 2.3-1.4.5-3 .8-4.8.8-.7 0-1.5 0-2.4-.1l-2.4-.3c-.8-.1-1.5-.2-2.3-.4-.7-.2-1.4-.3-1.9-.5v-30.6l6.2-1v10.9c.7-.3 1.4-.5 2.2-.7.7-.2 1.6-.2 2.4-.2 1.6 0 2.9.3 4.1.8 1.2.5 2.2 1.3 3 2.3.8 1 1.4 2.2 1.8 3.6.4 1.5.7 3 .7 4.8m-6.4-.2c0-4-1.5-6-4.4-6-.6 0-1.3.1-1.9.2-.6.2-1.1.4-1.5.6v11.3c.3.1.7.1 1.2.1s1 .1 1.5.1c1.7 0 3-.6 3.8-1.7.9-1.1 1.3-2.7 1.3-4.6m-20.1 10.4c-1.1.3-2.4.6-4.1.9-1.7.3-3.4.4-5.2.4-1.9 0-3.4-.2-4.6-.7-1.2-.5-2.2-1.2-2.9-2.1-.7-.9-1.2-2-1.5-3.2-.3-1.2-.5-2.6-.5-4.1v-12.2h6.2v11.4c0 2 .3 3.4.8 4.3.5.9 1.5 1.3 3 1.3.4 0 .9 0 1.4-.1.5 0 .9-.1 1.3-.1v-16.9h6.2v21.1zm-28.7.7c-.6-.9-1.3-2-2.1-3.1s-1.6-2.2-2.6-3.3c-.9-1.1-1.9-2.1-2.9-3.2-1-1-2-1.9-3-2.7v12.2h-6.5v-28.8H28v10.9c1.7-1.8 3.4-3.6 5.1-5.6 1.7-1.9 3.3-3.7 4.8-5.3h7.7c-2 2.3-3.9 4.6-5.9 6.7-2 2.2-4.1 4.3-6.3 6.5 2.3 1.9 4.5 4.2 6.7 6.8 2.1 2.6 4.2 5.5 6.2 8.7h-7.8z"/><path class="st4" d="M90.6 70.4l-3.6.8c0-.5-.1-1-.1-1.5 0-3.8 1-7.5 3-10.8l7 6.2c.1.1.2.2.4.3-.4 1-.7 2.1-.8 3.3-.2.1-.5.1-.7.2l-5.2 1.5zm13.5-21.2V59c-1 .3-1.9.8-2.7 1.4-.3-.2-.6-.5-.9-.7l-7.1-5c3-2.9 6.7-4.8 10.7-5.5M55.5 71.8c3.4-14.9 6.3-27.5 9.7-42.4 1.5-6.7 2.5-8.5 8.6-12C82.2 12.5 88.4 9 97.5 3.8c5.6-3.2 6.7-3 6.7 3.9v34.6c-6.3.8-12.1 3.7-16.4 8.3l-3-2.1c-.4-.3-.6-.5-.7-1-.4-1.1-.7-1.6-1.6-2.4-1.4-1.1-3.5-.9-4.6.5-1.1 1.4-.9 3.5.5 4.6.5.4 1 .7 1.6.8.4.1.8.1 1.2.2.4.1.6.2.9.4l2.8 2.5c-3.1 4.6-4.7 9.9-4.7 15.4 0 1 .1 2 .2 3l-6.1 1.3c-.4 0-.8 0-1.3.1l-.9.3c-4 .8-8 1.7-12.1 2.6-5.5 1.3-5.7.2-4.5-5M111.3 59v-9.8c4 .7 7.7 2.6 10.7 5.4l-7.7 5.5c-.1.1-.2.2-.3.2-.9-.6-1.8-1-2.7-1.3m17.1 11.5l-9.6-2.2c-.1-1.1-.4-2.1-.8-3 .1-.1.2-.2.3-.2l7.1-6.3c2 3.3 3.1 7 3.1 10.9-.1.2-.1.5-.1.8m-12.5-52.9c5.2 2.5 8.9 4.3 14.1 6.8 7.2 3.5 14.4 7 21.7 10.4 1.8 7.8 3.6 15.6 5.3 23.4 1.1 4.7 1.6 7.2 2.7 11.8 1.7 7.3 1.5 7.9-6 6.2L135.2 72c.1-.8.1-1.6.1-2.4 0-5.6-1.6-10.9-4.8-15.5l2.6-2.4c.4-.3.6-.4 1.1-.5 1.1-.2 1.8-.3 2.7-1 1.4-1.1 1.7-3.2.5-4.6-1.1-1.4-3.2-1.7-4.6-.5-.5.4-.9.8-1.2 1.4-.2.4-.3.7-.5 1.1-.1.3-.3.6-.6.8l-3 2.1c-4.4-4.6-10.1-7.5-16.4-8.3V21.1c.2-4.9.6-5.5 4.8-3.5m-6.3 63c-.6.1-1.2.2-1.9.2-.6 0-1.2 0-1.8-.1l-.3.6-4.4 8.1c2.1.7 4.3 1.1 6.6 1.1s4.5-.4 6.7-1.1l-4.4-8c-.3-.3-.4-.5-.5-.8m7.7-5.3l9.6 2.2c-1.6 3.9-4.3 7.2-7.8 9.5l-3.8-9.2c.8-.8 1.5-1.6 2-2.5m-28.8 2.1l9.6-2.2c.6 1 1.3 1.8 2.1 2.6l-.3.6-3.6 8.6c-3.5-2.3-6.2-5.7-7.8-9.6M167 94.3c-4.6 5.7-6.7 8.4-11.3 14.1-5.2 6.5-9.4 11.8-14.6 18.3-3.7 4.7-6.4 4.8-12.5 4.8h-42c-8 0-8.6 0-13.5-6.2-4.9-6.1-8.7-10.9-13.5-17-3.8-4.8-4.8-6-8.6-10.8-5.9-7.4-6.9-10.1 2.3-12.1L81.7 79c2.2 6 6.4 11.1 11.9 14.4l-1.3 3c-.2.4-.4.7-.8.9-.9.6-1.5 1-2 2.1-.8 1.6-.1 3.6 1.5 4.4 1.6.8 3.6.1 4.4-1.5.3-.6.4-1.1.5-1.8 0-.4 0-.8-.1-1.2 0-.4 0-.6.2-1l1.6-2.9c3.2 1.2 6.5 1.8 9.9 1.8 3.4 0 6.8-.6 10-1.9l1.6 2.9c.2.4.3.7.2 1.2-.1 1.1-.1 1.8.4 2.8.8 1.6 2.8 2.3 4.4 1.5 1.6-.8 2.3-2.8 1.5-4.4-.3-.6-.6-1.1-1.1-1.5-.3-.3-.7-.5-1-.7-.3-.2-.5-.4-.6-.8l-1.3-3.2c5.5-3.3 9.7-8.4 11.8-14.4l31.3 7.1c6.4 1.7 5.9 3.9 2.3 8.5"/><path class="st4" d="M111.3 59v-9.8c4 .7 7.7 2.6 10.7 5.4l-7.7 5.5c-.1.1-.2.2-.3.2-.9-.6-1.8-1-2.7-1.3m17.1 11.5l-9.6-2.2c-.1-1.1-.4-2.1-.8-3 .1-.1.2-.2.3-.2l7.1-6.3c2 3.3 3.1 7 3.1 10.9-.1.2-.1.5-.1.8m-12.5-52.9c5.2 2.5 8.9 4.3 14.1 6.8 7.2 3.5 14.4 7 21.7 10.4 1.8 7.8 3.6 15.6 5.3 23.4 1.1 4.7 1.6 7.2 2.7 11.8 1.7 7.3 1.5 7.9-6 6.2L135.2 72c.1-.8.1-1.6.1-2.4 0-5.6-1.6-10.9-4.8-15.5l2.6-2.4c.4-.3.6-.4 1.1-.5 1.1-.2 1.8-.3 2.7-1 1.4-1.1 1.7-3.2.5-4.6-1.1-1.4-3.2-1.7-4.6-.5-.5.4-.9.8-1.2 1.4-.2.4-.3.7-.5 1.1-.1.3-.3.6-.6.8l-3 2.1c-4.4-4.6-10.1-7.5-16.4-8.3V21.1c.2-4.9.6-5.5 4.8-3.5m1.4 57.7l9.6 2.2c-1.6 3.9-4.3 7.2-7.8 9.5l-3.8-9.2c.8-.8 1.5-1.6 2-2.5m-9.6 15.1v-9.6c.6 0 1.3-.1 1.9-.2.1.2.2.5.4.7l4.4 8c-2.2.7-4.4 1.1-6.7 1.1m59.3 3.9c-4.6 5.7-6.7 8.4-11.3 14.1-5.2 6.5-9.4 11.8-14.6 18.3-3.7 4.7-6.4 4.8-12.5 4.8h-20.9V97.2c3.4 0 6.8-.6 10-1.9l1.6 2.9c.2.4.3.7.2 1.2-.1 1.1-.1 1.8.4 2.8.8 1.6 2.8 2.3 4.4 1.5 1.6-.8 2.3-2.8 1.5-4.4-.3-.6-.6-1.1-1.1-1.5-.3-.3-.7-.5-1-.7-.3-.2-.5-.4-.6-.8l-1.3-3.2c5.5-3.3 9.7-8.4 11.8-14.4l31.3 7.1c6.2 1.7 5.7 3.9 2.1 8.5"/><path class="st3" d="M399 93.1h-16.6v38.8h38.8v-16.6H399zM482.2 93.2v22.1h-22.1l-.1-.2v16.8h38.8V93.1H482zM382.4 54.3h16.8l-.2-.1V32.1h22.1l.1.2V15.5h-38.8zM460 15.5v16.6h22.2v22.2h16.6V15.5z"/><path class="st5" d="M457.9 54.3l-22.1-22.2H460V15.5h-38.8v16.8l22 22zM437.9 93.1h-14.6l18.3 18.4 3.8 3.8H421.2v16.6H460v-16.8l-11-11zM482.2 54.3V78.5l-3.8-3.8L460 56.4v14.7l11 11 11 11h16.8V54.3zM421.2 76.3l-22-22h-16.8v38.8H399V68.9L421.2 91z"/><path class="st3" d="M301.3 174.2l-4.2 5c-1.9-2.3-4.7-3.7-7.2-3.7-4.5 0-8 3.6-8 8.3 0 4.8 3.4 8.4 8 8.4 2.4 0 5.2-1.3 7.2-3.4l4.3 4.5c-3.1 3.1-7.6 5.2-11.8 5.2-8.6 0-15-6.3-15-14.7 0-8.3 6.6-14.5 15.3-14.5 4.1.1 8.5 2 11.4 4.9zM304.8 198.2v-30.3h7.1v30.3h-7.1zM340 187.2c0 6.8-4.8 11.3-12 11.3s-12.1-4.5-12.1-11.3S320.7 176 328 176c7.1 0 12 4.4 12 11.2zm-17 .1c0 3.4 2 5.7 4.9 5.7 2.9 0 4.9-2.3 4.9-5.7 0-3.4-2-5.7-4.9-5.7-2.9 0-4.9 2.3-4.9 5.7zM365.2 198.2h-7.1v-3.6c-1.5 2.6-4 3.9-7.2 3.9-4.8 0-7.9-3.3-7.9-8.4v-13.9h7.1v11.9c0 2.6 1.4 4.2 3.7 4.2 2.7 0 4.3-2.2 4.3-5.2v-10.9h7.1v22zM393.1 198.2H386v-2.9c-1.6 2-3.8 3.2-6.6 3.2-6.2 0-10.3-4.6-10.3-11.4 0-6.7 4-11.2 10.1-11.2 2.9 0 5.2 1.1 6.8 3.2v-11.2h7.1v30.3zm-7.1-10.9c0-3.4-2-5.7-4.9-5.7-2.9 0-4.9 2.3-4.9 5.7 0 3.4 2 5.8 4.9 5.8 2.9-.1 4.9-2.4 4.9-5.8zM419 198.2l-13.2-17.6v17.6H399v-28.6h6.4l13.2 17.7v-17.7h6.8v28.6H419zM450.6 183.8v14.4h-6.9v-2.5c-1.4 1.9-3.8 2.9-6.7 2.9-4.7 0-7.6-2.9-7.6-6.9 0-4.2 3-6.6 8.5-6.7h5.8v-.3c0-2.2-1.4-3.5-4.3-3.5-1.8 0-4.3.7-6.6 1.8l-2-4.7c3.4-1.6 6.5-2.5 10.2-2.5 6 .1 9.5 3.1 9.6 8zm-7 7v-2h-4.5c-2.1 0-3.2.7-3.2 2.4 0 1.6 1.1 2.6 3.1 2.6 2.3 0 4.2-1.2 4.6-3zM469.6 197.1c-1.6.9-3.8 1.5-5.9 1.5-4.3 0-7.3-2.4-7.3-7v-9.7h-3.1v-4.6h3.1v-6.1h7v6.1h5.8v4.7h-5.8v8.6c0 1.7.7 2.5 2 2.4.7 0 1.7-.3 2.7-.7l1.5 4.8zM480.5 169.9c0 2.2-1.6 3.8-3.7 3.8-2.2 0-3.7-1.6-3.7-3.8 0-2.2 1.6-3.7 3.7-3.7 2.1-.1 3.7 1.5 3.7 3.7zm-7.3 28.3v-22h7v22h-7zM491.2 198.2l-8.3-22h7.3l4.7 15.6 4.8-15.6h7l-8.3 22h-7.2zM530 189.1h-15.5c.7 2.6 2.6 4.1 5.2 4.1 1.9 0 3.8-.8 5.3-2.2l3.7 3.6c-2.2 2.5-5.6 3.9-9.6 3.9-7.2 0-11.7-4.5-11.7-11.2 0-6.8 4.7-11.3 11.5-11.3 7.8 0 11.6 5.1 11.1 13.1zm-6.8-3.8c0-2.7-1.7-4.5-4.3-4.5-2.5 0-4.1 1.8-4.6 4.5h8.9zM558.8 174.2l-4.2 5c-1.9-2.3-4.7-3.7-7.2-3.7-4.5 0-8 3.6-8 8.3 0 4.8 3.4 8.4 8 8.4 2.4 0 5.2-1.3 7.2-3.4l4.3 4.5c-3.1 3.1-7.6 5.2-11.8 5.2-8.6 0-15-6.3-15-14.7 0-8.3 6.6-14.5 15.3-14.5 4.2.1 8.6 2 11.4 4.9zM583.6 187.2c0 6.8-4.8 11.3-12 11.3s-12.1-4.5-12.1-11.3 4.8-11.2 12.1-11.2c7.2 0 12 4.4 12 11.2zm-17 .1c0 3.4 2 5.7 4.9 5.7 2.9 0 4.9-2.3 4.9-5.7 0-3.4-2-5.7-4.9-5.7-2.9 0-4.9 2.3-4.9 5.7zM609.9 184.3v13.9h-7v-11.9c0-2.6-1.5-4.2-3.9-4.2-2.6 0-4.2 1.8-4.5 4.5v11.7h-7.1v-22h7.1v3.6c1.6-2.6 4.1-3.9 7.4-3.9 4.8-.1 8 3.2 8 8.3z"/><g class="st0"><defs><path id="SVGID_5_" d="M236.8 2.6h1v203.5h-1z"/></defs><use xlink:href="#SVGID_5_" overflow="visible" fill="#fff"/><clipPath id="SVGID_6_"><use xlink:href="#SVGID_5_" overflow="visible"/></clipPath><path class="st6" d="M236.8 2.6h1v203.5h-1z"/></g><g class="st0"><path class="st3" d="M232.3 255h-12.8v-22.2h12.8v3.9h-8.1v4.9h7.5v3.9h-7.5v5.7h8.1v3.8zM248.6 255l-.6-2.2h-.2c-.5.8-1.2 1.4-2.1 1.8-.9.4-1.9.6-3.1.6-2 0-3.5-.5-4.5-1.6s-1.5-2.6-1.5-4.6v-11h4.6v9.9c0 1.2.2 2.1.7 2.8.4.6 1.1.9 2.1.9 1.3 0 2.2-.4 2.8-1.3.6-.9.9-2.3.9-4.3v-8h4.6v17h-3.7zM266.5 237.7c.6 0 1.1 0 1.6.1l-.3 4.3c-.4-.1-.8-.2-1.4-.2-1.5 0-2.6.4-3.5 1.1-.8.8-1.2 1.8-1.2 3.2v8.6H257v-17h3.5l.7 2.9h.2c.5-1 1.2-1.7 2.1-2.3 1-.4 1.9-.7 3-.7zM286.6 246.5c0 2.8-.7 4.9-2.2 6.5-1.5 1.6-3.5 2.3-6.1 2.3-1.6 0-3.1-.4-4.3-1.1-1.2-.7-2.2-1.7-2.9-3.1-.7-1.3-1-2.9-1-4.7 0-2.8.7-4.9 2.2-6.5 1.4-1.5 3.5-2.3 6.1-2.3 1.6 0 3.1.4 4.3 1.1 1.2.7 2.2 1.7 2.9 3.1.6 1.4 1 2.9 1 4.7zm-11.8 0c0 1.7.3 3 .8 3.8.6.9 1.5 1.3 2.7 1.3 1.2 0 2.1-.4 2.7-1.3s.8-2.1.8-3.8c0-1.7-.3-2.9-.8-3.8s-1.4-1.3-2.7-1.3c-1.2 0-2.1.4-2.7 1.3s-.8 2.1-.8 3.8zM299.7 255.3c-2 0-3.6-.7-4.7-2.2h-.2c.2 1.4.2 2.2.2 2.5v6.9h-4.6V238h3.8l.7 2.2h.2c1.1-1.7 2.7-2.5 4.8-2.5 2 0 3.6.8 4.7 2.3 1.1 1.6 1.7 3.7 1.7 6.5 0 1.8-.3 3.4-.8 4.7-.5 1.3-1.3 2.4-2.3 3.1-1 .7-2.2 1-3.5 1zm-1.3-13.9c-1.1 0-2 .4-2.5 1.1-.5.7-.8 1.9-.8 3.5v.5c0 1.8.3 3.1.8 3.9.5.8 1.4 1.2 2.6 1.2 2.1 0 3.1-1.7 3.1-5.1 0-1.7-.3-2.9-.8-3.8-.5-.8-1.4-1.3-2.4-1.3zM317.8 255.3c-2.7 0-4.9-.8-6.4-2.3-1.5-1.5-2.3-3.6-2.3-6.4 0-2.8.7-5 2.1-6.6 1.4-1.6 3.4-2.3 5.9-2.3 2.4 0 4.3.7 5.6 2.1 1.3 1.4 2 3.3 2 5.7v2.2h-11c.1 1.3.4 2.3 1.2 3.1.7.7 1.8 1.1 3.1 1.1 1 0 2-.1 2.9-.3.9-.2 1.9-.6 2.9-1v3.6c-.8.4-1.7.7-2.6.9-1 .1-2.1.2-3.4.2zm-.7-14.3c-1 0-1.8.3-2.3.9-.6.6-.9 1.5-1 2.7h6.5c0-1.1-.3-2-.9-2.7-.5-.6-1.3-.9-2.3-.9zM350.9 255h-15.5v-3.3l5.6-5.6c1.7-1.7 2.7-2.9 3.2-3.5.5-.7.9-1.3 1.1-1.8.2-.6.3-1.1.3-1.7 0-.9-.2-1.6-.7-2-.5-.4-1.1-.7-2-.7-.9 0-1.7.2-2.5.6-.8.4-1.7 1-2.5 1.7l-2.6-3c1.1-.9 2-1.6 2.7-2 .7-.4 1.5-.7 2.4-.9.9-.2 1.8-.3 2.9-.3 1.4 0 2.6.3 3.7.8s1.9 1.2 2.5 2.1c.6.9.9 2 .9 3.1 0 1-.2 2-.5 2.9-.4.9-.9 1.8-1.7 2.8s-2.1 2.3-4 4l-2.9 2.7v.2h9.7v3.9zM368.5 243.9c0 3.9-.6 6.8-1.9 8.6-1.3 1.9-3.2 2.8-5.9 2.8-2.6 0-4.5-1-5.8-2.9-1.3-1.9-2-4.8-2-8.5 0-3.9.6-6.8 1.9-8.7s3.2-2.8 5.8-2.8c2.6 0 4.5 1 5.8 2.9 1.5 2 2.1 4.9 2.1 8.6zm-10.8 0c0 2.7.2 4.7.7 5.9.5 1.2 1.3 1.8 2.4 1.8 1.1 0 1.9-.6 2.4-1.8.5-1.2.7-3.1.7-5.8 0-2.7-.2-4.7-.7-5.9-.5-1.2-1.3-1.8-2.4-1.8-1.1 0-1.9.6-2.4 1.8-.5 1.1-.7 3.1-.7 5.8zM382.5 255h-4.7v-15l.1-2.3c-.8.8-1.3 1.3-1.6 1.5l-2.6 2.1-2.3-2.8 7.2-5.7h3.9V255zM404.1 242.3c0 4.4-.9 7.6-2.8 9.8-1.8 2.2-4.6 3.2-8.4 3.2-1.3 0-2.3-.1-3-.2v-3.8c.9.2 1.7.3 2.7.3 1.6 0 2.9-.2 3.9-.7 1-.5 1.8-1.2 2.3-2.2.5-1 .8-2.3.9-4.1h-.2c-.6 1-1.3 1.6-2 2-.8.4-1.7.6-2.9.6-1.9 0-3.5-.6-4.6-1.9s-1.7-3-1.7-5.2c0-2.4.7-4.3 2-5.6 1.4-1.4 3.2-2.1 5.5-2.1 1.6 0 3.1.4 4.3 1.2 1.2.8 2.2 1.9 2.8 3.4.9 1.5 1.2 3.3 1.2 5.3zm-8.1-6c-1 0-1.7.3-2.3 1-.5.7-.8 1.6-.8 2.9 0 1.1.2 1.9.7 2.6s1.3.9 2.3.9c1 0 1.8-.3 2.4-.9.7-.6 1-1.3 1-2.2 0-1.2-.3-2.2-.9-3.1-.6-.8-1.4-1.2-2.4-1.2z"/></g></svg>
