<?xml version="1.0" encoding="utf-8"?>
<!-- Generator: Adobe Illustrator 16.2.0, SVG Export Plug-In . SVG Version: 6.00 Build 0)  -->
<!DOCTYPE svg PUBLIC "-//W3C//DTD SVG 1.1//EN" "http://www.w3.org/Graphics/SVG/1.1/DTD/svg11.dtd">
<svg version="1.1" id="Layer_1" xmlns="http://www.w3.org/2000/svg" xmlns:xlink="http://www.w3.org/1999/xlink" x="0px" y="0px"
	 width="2000px" height="2000px" viewBox="0 0 2000 2000" enable-background="new 0 0 2000 2000" xml:space="preserve">
<path fill="#FFFFFF" d="M1094.384,867.649c-1.845,0-3.758,0.142-5.603,0.354c-29.217,3.475-54.461,29.429-77.934,63.467
	c6.525-1.204,12.906-2.056,19.146-2.553c19.146-25.741,39.074-44.25,60.49-46.873c0.567-0.072,1.134-0.072,1.771-0.143h1.064
	c0.213-0.07,0.496-0.07,0.709-0.07h0.993c0.354,0.07,0.78,0.07,1.206,0.07c0.354,0,0.709,0.07,0.992,0.07
	c0.638,0.072,1.206,0.072,1.771,0.213c0.426,0,0.781,0.072,1.207,0.143c0.425,0.07,0.851,0.143,1.206,0.213
	c0.354,0.07,0.708,0.143,1.062,0.213c0.711,0.142,1.42,0.354,2.128,0.567c1.276,0.283,2.625,0.709,3.9,1.205
	c0.284,0.142,0.638,0.212,0.993,0.354c0.922,0.355,1.915,0.781,2.908,1.206c0.639,0.354,1.348,0.639,1.985,0.992
	c1.63,0.78,3.332,1.702,4.964,2.695c1.063,0.566,2.056,1.205,3.049,1.915c0.568,0.354,1.064,0.709,1.63,1.063
	c1.136,0.779,2.271,1.631,3.404,2.481c0.639,0.496,1.276,0.922,1.845,1.419c0.141,0.141,0.283,0.213,0.426,0.354
	c0.566,0.498,1.204,0.993,1.843,1.489c1.774,1.489,3.616,3.121,5.39,4.823c0.497,0.426,0.923,0.85,1.348,1.347
	c1.135,1.064,2.269,2.198,3.403,3.404c0.71,0.639,1.349,1.417,2.057,2.126c0.639,0.71,1.348,1.489,1.985,2.2
	c0.709,0.778,1.348,1.56,2.058,2.34c3.332,3.9,6.666,8.083,9.928,12.622c20.281,28.153,35.173,63.325,39.854,94.103
	c4.679,31.415-1.489,59.709-16.879,77.649c-8.013,9.29-18.224,15.53-30.421,18.722c-6.312,1.702-13.189,2.482-20.564,2.482
	c-2.908,0-6.027-0.143-9.148-0.426c-8.651-0.71-16.807-2.127-24.607-4.112c-24.536-6.313-44.675-18.296-61.977-33.188
	c-5.319-4.61-10.354-9.504-15.177-14.538c-5.956-6.24-11.63-12.765-16.947-19.43c-8.937-10.922-17.092-22.267-25.032-33.259
	l-0.072-0.071c1.419-2.411,2.836-4.822,4.256-7.305c7.942-13.971,16.025-28.011,24.181-41.483l0,0
	c-6.666,1.702-13.402,3.758-20.211,6.24c-5.53,9.29-10.919,18.792-16.309,28.224c-0.355,0.566-0.639,1.135-0.993,1.772
	c-4.256-5.814-8.509-11.487-12.765-16.807c-2.058-2.482-4.112-4.964-6.24-7.374c-3.334-3.76-6.666-7.305-10.211-10.566
	c-2.482-2.34-5.036-4.538-7.659-6.525c-10.211-7.728-21.415-12.48-34.109-12.48c-2.766,0-5.602,0.213-8.367,0.638
	c-17.02,2.767-30.139,12.341-39.641,25.673c4.396,1.276,9.148,2.836,14.396,4.821c7.161-8.581,16.311-14.679,27.513-16.451
	c2.058-0.355,4.115-0.498,6.1-0.498c7.375,0,14.254,2.271,20.92,6.453c2.766,1.702,5.389,3.76,8.083,6.028
	c3.475,2.979,6.879,6.383,10.354,10.282c2.127,2.269,4.185,4.681,6.313,7.234c5.53,6.736,28.72,38.435,29.711,39.852
	c4.255,5.815,8.724,11.772,13.332,17.729c7.659,9.855,15.955,19.713,25.032,29.003c8.652,8.793,18.013,17.091,28.296,24.466
	c21.911,15.601,48.149,27.018,80.628,29.854c3.545,0.285,7.02,0.426,10.354,0.426c25.67,0,47.016-9.077,61.765-26.167
	c18.083-20.989,25.387-53.468,20.067-88.926c-4.892-32.975-20.776-70.487-42.334-100.341
	C1145.229,885.875,1118.707,867.649,1094.384,867.649z"/>
<path fill="#FFFFFF" d="M917.455,981.182c-10.637,7.305-19.713,14.608-27.018,20.92c-8.936-4.184-16.877-7.66-24.04-10.496
	c-3.12-1.276-6.169-2.411-9.005-3.475c-5.177-1.843-9.787-3.332-14.042-4.396c-3.475-0.924-6.666-1.562-9.573-1.985
	c-2.34-0.285-4.468-0.426-6.453-0.426c-3.545,0-6.736,0.496-9.359,1.56c-19.077,7.517-32.408,25.813-33.26,45.526
	c-0.779,16.664,7.659,31.06,22.48,38.506c4.467,2.198,9.077,3.332,13.756,3.332h0.498c-0.852-4.608-1.349-9.359-1.702-14.183
	c-2.058-0.213-4.113-0.779-6.171-1.843c-9.857-4.894-15.246-14.112-14.749-25.175c0.566-11.843,8.296-26.664,24.324-32.975
	c0.708-0.283,1.985-0.567,4.183-0.567h0.496c2.625,0,5.814,0.497,9.574,1.349c3.971,0.921,8.509,2.268,13.758,4.112
	c2.764,0.992,5.672,2.056,8.863,3.332c5.673,2.271,11.913,4.964,18.862,8.085c-5.034,4.608-9.785,9.147-14.183,13.26
	c-4.113,3.9-8.084,7.66-11.843,11.134c-0.213,3.12-0.354,6.312-0.354,9.433c0,3.189,0.141,6.311,0.354,9.289
	c6.809-5.531,13.899-12.268,21.63-19.572c5.814-5.532,11.771-11.204,18.296-17.02c13.189,6.384,27.442,13.615,41.979,21.203
	c2.766,1.419,5.531,2.908,8.367,4.397l12.624,6.594c2.693,1.419,5.319,2.838,8.013,4.255c0.143,0.07,0.213,0.143,0.355,0.213
	c7.587,3.973,15.174,7.942,22.621,11.843c-5.177-6.17-18.793-25.883-19.785-26.379c-1.276-0.711-2.553-1.419-3.9-2.058
	c-4.185-2.269-8.367-4.468-12.553-6.666c-2.836-1.417-5.602-2.906-8.366-4.325c-12.906-6.736-25.671-13.26-37.655-19.146
	c6.666-5.53,14.466-11.63,23.473-17.729C924.334,987.209,920.859,983.876,917.455,981.182z"/>
<path fill="#FFFFFF" d="M834.699,1004.725c-3.971,13.262-5.886,27.585-5.815,41.556c0,2.623,0.072,5.247,0.213,7.942
	c0.285,4.821,0.852,9.715,1.632,14.466c0.496,3.191,1.135,6.312,1.915,9.36c5.673,22.834,17.87,41.698,37.583,44.817
	c2.058,0.284,4.113,0.497,6.17,0.497c26.947,0,49.994-25.955,74.316-64.177c-4.254-2.271-8.438-4.468-12.692-6.666
	c-20.919,32.62-41.485,56.66-61.624,56.66c-1.348,0-2.623-0.143-3.972-0.355c-12.269-1.915-22.054-16.168-26.662-36.662
	c-0.71-3.262-1.276-6.594-1.702-10.141c-0.639-5.034-0.993-10.282-0.993-15.742v-1.063c0.07-12.269,1.845-25.103,5.46-36.875
	C843.138,1006.569,838.246,1005.434,834.699,1004.725z"/>
<path fill="#FFFFFF" d="M1043.326,937.854c-2.766,0-5.532,0.07-8.296,0.283c-4.042,0.143-8.155,0.568-12.341,1.064
	c-6.311,0.78-12.764,1.914-19.287,3.474c-4.468,0.994-8.936,2.198-13.475,3.547c-9.289,2.765-18.791,6.24-28.364,10.354
	c-4.964,2.128-9.715,4.396-14.325,6.736c3.475,3.332,6.809,6.949,10.07,10.778c3.191-1.56,6.523-3.049,9.857-4.468
	c3.83-1.702,7.587-3.191,11.345-4.608c4.681-1.772,9.292-3.334,13.83-4.751c6.735-2.058,13.33-3.688,19.783-4.964
	c4.255-0.852,8.44-1.56,12.553-2.058c6.382-0.779,12.552-1.204,18.649-1.204c37.513,0,69.779,15.104,96.018,44.745
	c23.117,26.238,30.848,55.455,20.564,78.147c-8.014,17.8-25.601,28.365-47.086,28.365c-3.76,0-7.589-0.284-11.489-0.993
	c-12.269-1.985-30.139-9.077-50.845-18.722l0,0c19.43,14.254,42.406,24.395,70.913,26.947c2.836,0.213,5.675,0.355,8.298,0.355
	c6.168,0,27.585-1.276,43.186-30.068c14.751-27.442,4.042-62.9-22.904-93.393C1120.976,954.518,1085.095,937.854,1043.326,937.854z"
	/>
</svg>
