<?xml version="1.0" encoding="utf-8"?>
<!-- Generator: Adobe Illustrator 16.2.0, SVG Export Plug-In . SVG Version: 6.00 Build 0)  -->
<!DOCTYPE svg PUBLIC "-//W3C//DTD SVG 1.1//EN" "http://www.w3.org/Graphics/SVG/1.1/DTD/svg11.dtd">
<svg version="1.1" id="Layer_1" xmlns="http://www.w3.org/2000/svg" xmlns:xlink="http://www.w3.org/1999/xlink" x="0px" y="0px"
	 width="604px" height="817.375px" viewBox="-1.181 0 604 817.375" enable-background="new -1.181 0 604 817.375"
	 xml:space="preserve">
<g>
	<g>
		
			<linearGradient id="SVGID_1_" gradientUnits="userSpaceOnUse" x1="-1363.7529" y1="290.2363" x2="-815.3672" y2="290.2363" gradientTransform="matrix(1 0 0 1 1388 26.375)">
			<stop  offset="0" style="stop-color:#A2DCE8"/>
			<stop  offset="0.0825" style="stop-color:#99D7E5"/>
			<stop  offset="0.4645" style="stop-color:#76C8DC"/>
			<stop  offset="0.784" style="stop-color:#5EC0D7"/>
			<stop  offset="1" style="stop-color:#54BDD5"/>
		</linearGradient>
		<path fill="url(#SVGID_1_)" d="M572.633,455.379c0,10.746-7.613,23.937-16.921,29.309L315.36,623.454
			c-9.308,5.373-24.535,5.373-33.841,0L41.167,484.688c-9.306-5.372-16.92-18.563-16.92-29.309V177.844
			c0-10.746,7.614-23.934,16.92-29.307L281.519,9.769c9.306-5.373,24.535-5.373,33.841,0l240.352,138.768
			c9.308,5.373,16.921,18.561,16.921,29.307V455.379z"/>
		<path fill="none" stroke="#FFFFFF" stroke-width="0.9769" stroke-miterlimit="10" d="M572.633,455.379
			c0,10.746-7.613,23.937-16.921,29.309L315.36,623.454c-9.308,5.373-24.535,5.373-33.841,0L41.167,484.688
			c-9.306-5.372-16.92-18.563-16.92-29.309V177.844c0-10.746,7.614-23.934,16.92-29.307L281.519,9.769
			c9.306-5.373,24.535-5.373,33.841,0l240.352,138.768c9.308,5.373,16.921,18.561,16.921,29.307V455.379z"/>
	</g>
</g>
<g>
	<path fill="#46B6E5" d="M62.552,742.943h19.469v30.752c-8.599,9.59-20.503,14.384-35.713,14.384
		c-12.73,0-23.416-4.216-32.054-12.648c-8.64-8.432-12.958-19.074-12.958-31.93c0-12.854,4.402-23.579,13.206-32.178
		c8.804-8.597,19.426-12.896,31.868-12.896c12.44,0,23.25,4.092,32.426,12.276l-10.044,14.508
		c-3.887-3.389-7.461-5.724-10.726-7.006c-3.267-1.281-6.801-1.922-10.603-1.922c-7.358,0-13.559,2.501-18.6,7.502
		c-5.044,5.002-7.564,11.594-7.564,19.777c0,8.185,2.418,14.737,7.254,19.654c4.836,4.919,10.603,7.378,17.299,7.378
		c6.695,0,12.275-1.28,16.739-3.844V742.943z"/>
	<path fill="#46B6E5" d="M155.18,777.415c-7.523,7.11-16.349,10.664-26.474,10.664c-10.127,0-18.497-3.119-25.11-9.362
		c-6.614-6.24-9.92-14.61-9.92-25.11c0-10.497,3.367-18.848,10.106-25.048c6.736-6.199,14.693-9.3,23.87-9.3
		c9.176,0,16.967,2.771,23.374,8.309c6.405,5.539,9.609,13.144,9.609,22.815v9.92h-48.607c0.577,3.639,2.479,6.615,5.704,8.928
		c3.224,2.315,6.86,3.473,10.911,3.473c6.53,0,11.904-2.189,16.12-6.572L155.18,777.415z M137.324,737.859
		c-2.563-2.149-5.685-3.225-9.362-3.225c-3.679,0-7.049,1.116-10.105,3.349c-3.06,2.231-4.836,5.25-5.332,9.052h29.264
		C141.373,743.067,139.886,740.01,137.324,737.859z"/>
	<path fill="#46B6E5" d="M195.479,733.767v29.885c0,2.563,0.661,4.568,1.984,6.014c1.321,1.447,2.893,2.17,4.712,2.17
		c3.472,0,6.405-1.569,8.804-4.712l6.944,13.02c-5.787,5.292-11.885,7.937-18.29,7.937c-6.407,0-11.822-2.108-16.244-6.324
		c-4.423-4.216-6.634-9.961-6.634-17.236v-30.752h-7.813v-13.392h7.813v-19.964h18.724v19.964h16.12v13.392H195.479z"/>
	<path fill="#46B6E5" d="M292.198,700.411v17.235h-43.152v17.856h38.813v16.492h-38.813v17.979h44.517v17.112h-63.86v-86.676
		H292.198z"/>
	<path fill="#46B6E5" d="M326.921,749.887v37.2h-18.602v-66.712h18.602v7.439c5.619-5.703,11.943-8.556,18.971-8.556
		c7.025,0,12.916,2.48,17.67,7.44s7.131,11.574,7.131,19.84v40.548h-18.6v-37.696c0-10.249-3.764-15.376-11.285-15.376
		c-3.719,0-6.965,1.345-9.734,4.03C328.304,740.732,326.921,744.679,326.921,749.887z"/>
	<path fill="#46B6E5" d="M404.421,787.087l-26.412-66.836h19.344l16.617,42.036l16.615-42.036h19.344l-26.412,66.836H404.421z"/>
	<path fill="#46B6E5" d="M524.329,753.73c0,9.673-3.348,17.815-10.043,24.429c-6.695,6.614-15.109,9.92-25.234,9.92
		c-10.127,0-18.537-3.306-25.234-9.92c-6.695-6.613-10.043-14.756-10.043-24.429c0-9.672,3.348-17.834,10.043-24.489
		c6.697-6.653,15.107-9.982,25.234-9.982c10.125,0,18.539,3.329,25.234,9.982C520.981,735.896,524.329,744.059,524.329,753.73z
		 M472.497,753.73c0,5.456,1.551,9.901,4.65,13.33c3.1,3.432,7.068,5.146,11.904,5.146s8.805-1.715,11.904-5.146
		c3.1-3.429,4.65-7.874,4.65-13.33c0-5.455-1.551-9.92-4.65-13.392s-7.068-5.208-11.904-5.208s-8.805,1.736-11.904,5.208
		S472.497,748.275,472.497,753.73z"/>
	<path fill="#46B6E5" d="M548.015,813.375c-6.531,0-12.691-2.646-18.477-7.937l8.432-13.764c3.141,3.058,6.365,4.588,9.672,4.588
		c1.736,0,3.225-0.849,4.465-2.542c1.24-1.695,1.859-3.493,1.859-5.394c0-1.901-8.598-24.552-25.791-67.952h19.84l16.244,41.54
		l16.244-41.54h19.84l-31,78.616c-1.82,4.545-4.65,8.079-8.494,10.602C557.005,812.113,552.726,813.375,548.015,813.375z"/>
</g>
</svg>
