<?xml version="1.0" encoding="utf-8"?>
<!-- Generator: Adobe Illustrator 16.2.0, SVG Export Plug-In . SVG Version: 6.00 Build 0)  -->
<!DOCTYPE svg PUBLIC "-//W3C//DTD SVG 1.1//EN" "http://www.w3.org/Graphics/SVG/1.1/DTD/svg11.dtd">
<svg version="1.1" id="Layer_1" xmlns="http://www.w3.org/2000/svg" xmlns:xlink="http://www.w3.org/1999/xlink" x="0px" y="0px"
	 width="500px" height="500px" viewBox="0 0 500 500" enable-background="new 0 0 500 500" xml:space="preserve">
<g>
	
		<linearGradient id="SVGID_1_" gradientUnits="userSpaceOnUse" x1="-733.7178" y1="1255.2715" x2="-733.7201" y2="1243.9561" gradientTransform="matrix(23.5815 0 0 -23.5815 17584.1543 29680.9648)">
		<stop  offset="0" style="stop-color:#6DCDE6"/>
		<stop  offset="0.94" style="stop-color:#FFFBEB"/>
		<stop  offset="1" style="stop-color:#FFF3CD"/>
	</linearGradient>
	<path fill="url(#SVGID_1_)" d="M345.441,79.849c-1.845,0-3.758,0.143-5.602,0.355c-29.218,3.475-54.463,29.428-77.935,63.467
		c6.524-1.205,12.906-2.056,19.146-2.554c19.147-25.74,39.074-44.249,60.489-46.872c0.568-0.072,1.135-0.072,1.773-0.143h1.063
		c0.213-0.07,0.495-0.07,0.708-0.07h0.994c0.355,0.07,0.78,0.07,1.206,0.07c0.354,0,0.708,0.07,0.991,0.07
		c0.639,0.072,1.207,0.072,1.773,0.213c0.425,0,0.78,0.071,1.206,0.142c0.425,0.07,0.851,0.143,1.206,0.213
		c0.354,0.07,0.709,0.143,1.062,0.213c0.711,0.143,1.419,0.355,2.128,0.568c1.276,0.283,2.625,0.709,3.9,1.204
		c0.285,0.143,0.638,0.213,0.993,0.355c0.921,0.355,1.915,0.78,2.908,1.206c0.639,0.354,1.347,0.639,1.985,0.992
		c1.63,0.78,3.332,1.702,4.964,2.695c1.063,0.566,2.056,1.204,3.049,1.915c0.568,0.354,1.063,0.708,1.63,1.063
		c1.137,0.779,2.271,1.63,3.404,2.481c0.639,0.495,1.277,0.921,1.845,1.419c0.141,0.141,0.283,0.213,0.426,0.354
		c0.566,0.497,1.204,0.993,1.843,1.489c1.773,1.489,3.617,3.121,5.389,4.823c0.498,0.425,0.924,0.849,1.35,1.347
		c1.134,1.063,2.268,2.198,3.402,3.404c0.71,0.638,1.349,1.417,2.057,2.126c0.639,0.71,1.348,1.489,1.985,2.199
		c0.709,0.779,1.347,1.56,2.058,2.341c3.332,3.9,6.666,8.083,9.928,12.621c20.281,28.153,35.173,63.326,39.854,94.103
		c4.679,31.416-1.489,59.709-16.879,77.65c-8.013,9.289-18.224,15.529-30.422,18.721c-6.311,1.702-13.189,2.483-20.563,2.483
		c-2.908,0-6.028-0.143-9.149-0.426c-8.65-0.71-16.806-2.128-24.606-4.112c-24.536-6.313-44.675-18.296-61.978-33.188
		c-5.318-4.611-10.353-9.504-15.176-14.539c-5.956-6.24-11.63-12.764-16.947-19.43c-8.937-10.921-17.092-22.266-25.033-33.258
		l-0.072-0.072c1.419-2.41,2.837-4.821,4.255-7.304c7.943-13.971,16.026-28.011,24.182-41.483l0,0
		c-6.667,1.702-13.403,3.758-20.211,6.24c-5.529,9.289-10.919,18.792-16.309,28.224c-0.355,0.566-0.639,1.134-0.993,1.772
		c-4.256-5.815-8.509-11.487-12.765-16.807c-2.057-2.482-4.112-4.964-6.24-7.375c-3.334-3.759-6.666-7.304-10.211-10.565
		c-2.482-2.341-5.036-4.539-7.659-6.525c-10.211-7.729-21.415-12.481-34.109-12.481c-2.766,0-5.602,0.213-8.368,0.639
		c-17.019,2.766-30.138,12.34-39.641,25.672c4.396,1.277,9.149,2.837,14.396,4.822c7.161-8.581,16.311-14.68,27.513-16.452
		c2.058-0.354,4.114-0.497,6.1-0.497c7.375,0,14.254,2.27,20.92,6.453c2.766,1.702,5.39,3.76,8.083,6.027
		c3.475,2.979,6.879,6.383,10.354,10.283c2.127,2.269,4.185,4.681,6.313,7.234c5.53,6.736,28.719,38.434,29.711,39.852
		c4.255,5.814,8.724,11.771,13.332,17.729c7.659,9.855,15.956,19.713,25.033,29.002c8.653,8.794,18.013,17.092,28.296,24.466
		c21.911,15.601,48.149,27.018,80.628,29.854c3.545,0.284,7.02,0.425,10.354,0.425c25.67,0,47.015-9.076,61.765-26.166
		c18.083-20.989,25.387-53.469,20.068-88.926c-4.893-32.975-20.777-70.488-42.335-100.342
		C396.287,98.074,369.765,79.849,345.441,79.849z"/>
	
		<linearGradient id="SVGID_2_" gradientUnits="userSpaceOnUse" x1="-733.9668" y1="1247.8125" x2="-733.9681" y2="1241.2744" gradientTransform="matrix(13.625 0 0 -13.625 10137.084 17194.8633)">
		<stop  offset="0" style="stop-color:#6DCDE6"/>
		<stop  offset="0.94" style="stop-color:#FFFBEB"/>
		<stop  offset="1" style="stop-color:#FFF3CD"/>
	</linearGradient>
	<path fill="url(#SVGID_2_)" d="M168.512,193.382c-10.637,7.304-19.713,14.608-27.018,20.919
		c-8.936-4.183-16.877-7.659-24.04-10.495c-3.119-1.277-6.169-2.411-9.005-3.475c-5.177-1.843-9.787-3.332-14.042-4.396
		c-3.475-0.923-6.666-1.562-9.573-1.985c-2.34-0.284-4.468-0.425-6.453-0.425c-3.545,0-6.736,0.495-9.359,1.56
		c-19.077,7.517-32.409,25.813-33.26,45.525c-0.779,16.664,7.659,31.061,22.48,38.507c4.467,2.198,9.077,3.332,13.756,3.332h0.498
		c-0.852-4.608-1.349-9.359-1.702-14.183c-2.058-0.213-4.113-0.779-6.17-1.843c-9.857-4.894-15.247-14.113-14.75-25.175
		c0.566-11.843,8.297-26.664,24.324-32.975c0.708-0.283,1.984-0.568,4.183-0.568h0.496c2.625,0,5.815,0.498,9.574,1.349
		c3.971,0.922,8.509,2.269,13.758,4.113c2.764,0.991,5.672,2.056,8.864,3.332c5.672,2.27,11.912,4.964,18.861,8.085
		c-5.034,4.608-9.785,9.146-14.183,13.26c-4.113,3.9-8.083,7.659-11.843,11.134c-0.213,3.12-0.354,6.312-0.354,9.433
		c0,3.189,0.141,6.311,0.354,9.289c6.809-5.532,13.9-12.269,21.63-19.572c5.814-5.532,11.771-11.204,18.296-17.02
		c13.189,6.383,27.442,13.615,41.979,21.202c2.767,1.419,5.532,2.909,8.369,4.398l12.623,6.594c2.693,1.419,5.318,2.838,8.013,4.255
		c0.143,0.07,0.213,0.143,0.355,0.213c7.587,3.973,15.175,7.942,22.621,11.843c-5.177-6.17-18.794-25.884-19.785-26.379
		c-1.276-0.711-2.554-1.419-3.9-2.058c-4.185-2.269-8.368-4.468-12.553-6.666c-2.836-1.417-5.603-2.906-8.366-4.325
		c-12.906-6.736-25.671-13.261-37.655-19.147c6.666-5.53,14.466-11.63,23.472-17.728
		C175.391,199.409,171.916,196.075,168.512,193.382z"/>
	
		<linearGradient id="SVGID_3_" gradientUnits="userSpaceOnUse" x1="-735.5742" y1="1247.1494" x2="-735.5757" y2="1239.6045" gradientTransform="matrix(15.7231 0 0 -15.7231 11706.373 19826.0078)">
		<stop  offset="0" style="stop-color:#6DCDE6"/>
		<stop  offset="0.94" style="stop-color:#FFFBEB"/>
		<stop  offset="1" style="stop-color:#FFF3CD"/>
	</linearGradient>
	<path fill="url(#SVGID_3_)" d="M85.756,216.925c-3.971,13.262-5.886,27.585-5.815,41.556c0,2.623,0.072,5.246,0.213,7.942
		c0.285,4.821,0.852,9.715,1.632,14.466c0.496,3.191,1.134,6.311,1.915,9.359c5.673,22.835,17.87,41.698,37.583,44.817
		c2.058,0.285,4.113,0.498,6.171,0.498c26.946,0,49.993-25.955,74.315-64.177c-4.254-2.271-8.438-4.469-12.692-6.666
		c-20.919,32.619-41.484,56.66-61.623,56.66c-1.35,0-2.624-0.143-3.973-0.355c-12.268-1.915-22.054-16.168-26.662-36.662
		c-0.71-3.262-1.276-6.594-1.702-10.141c-0.638-5.034-0.993-10.283-0.993-15.742v-1.064c0.07-12.268,1.844-25.103,5.459-36.875
		C94.194,218.769,89.302,217.633,85.756,216.925z"/>
	
		<linearGradient id="SVGID_4_" gradientUnits="userSpaceOnUse" x1="-728.563" y1="1251.8633" x2="-728.5648" y2="1242.752" gradientTransform="matrix(18.9888 0 0 -18.9888 14149.0195 23921.457)">
		<stop  offset="0" style="stop-color:#6DCDE6"/>
		<stop  offset="0.94" style="stop-color:#FFFBEB"/>
		<stop  offset="1" style="stop-color:#FFF3CD"/>
	</linearGradient>
	<path fill="url(#SVGID_4_)" d="M294.383,150.054c-2.766,0-5.532,0.07-8.296,0.283c-4.043,0.143-8.155,0.567-12.34,1.063
		c-6.312,0.781-12.765,1.915-19.288,3.475c-4.468,0.993-8.937,2.198-13.475,3.547c-9.289,2.764-18.792,6.24-28.364,10.354
		c-4.964,2.127-9.715,4.396-14.325,6.736c3.475,3.332,6.809,6.949,10.07,10.778c3.191-1.56,6.523-3.049,9.857-4.468
		c3.829-1.702,7.587-3.191,11.345-4.608c4.681-1.772,9.291-3.334,13.83-4.752c6.736-2.057,13.331-3.687,19.784-4.964
		c4.255-0.851,8.439-1.56,12.553-2.057c6.381-0.779,12.551-1.205,18.649-1.205c37.513,0,69.779,15.104,96.018,44.746
		c23.117,26.238,30.847,55.455,20.563,78.146c-8.012,17.801-25.6,28.366-47.085,28.366c-3.76,0-7.589-0.285-11.489-0.993
		c-12.268-1.985-30.139-9.077-50.845-18.722l0,0c19.43,14.253,42.406,24.394,70.913,26.947c2.836,0.213,5.674,0.354,8.298,0.354
		c6.168,0,27.585-1.276,43.186-30.067c14.751-27.443,4.042-62.9-22.905-93.393C372.033,166.718,336.152,150.054,294.383,150.054z"/>
	<path fill="#FFFFFF" d="M143.531,377.247h-14.648V419.5h-5.859v-42.253h-14.648v-5.143h35.156V377.247z M167.132,420.151
		c-2.474,0-4.753-0.424-6.836-1.27c-2.062-0.847-3.83-2.029-5.307-3.549c-1.475-1.519-2.625-3.32-3.45-5.403
		c-0.824-2.083-1.236-4.352-1.237-6.804v-1.367c0.001-2.843,0.456-5.382,1.367-7.617c0.912-2.257,2.116-4.155,3.613-5.696
		c1.52-1.563,3.234-2.756,5.144-3.581c1.932-0.824,3.906-1.236,5.925-1.236c2.539,0,4.753,0.444,6.641,1.334
		c1.91,0.868,3.494,2.084,4.752,3.646c1.26,1.54,2.192,3.363,2.8,5.469c0.63,2.104,0.944,4.384,0.944,6.836v2.701h-25.163
		c0.065,1.606,0.369,3.114,0.911,4.525c0.564,1.41,1.324,2.647,2.279,3.711c0.977,1.041,2.138,1.866,3.482,2.474
		c1.346,0.607,2.833,0.911,4.46,0.911c2.148,0,4.059-0.434,5.729-1.302s3.06-2.019,4.166-3.45l3.679,2.864
		c-0.586,0.89-1.323,1.747-2.214,2.571c-0.867,0.804-1.877,1.52-3.027,2.148c-1.149,0.63-2.451,1.129-3.906,1.498
		C170.431,419.956,168.847,420.151,167.132,420.151z M166.351,388.575c-1.215,0-2.365,0.229-3.451,0.684
		c-1.084,0.435-2.061,1.085-2.93,1.953c-0.867,0.847-1.605,1.899-2.213,3.158c-0.586,1.236-0.998,2.669-1.237,4.297h18.945v-0.456
		c-0.064-1.172-0.293-2.333-0.684-3.483c-0.368-1.149-0.922-2.181-1.66-3.092c-0.737-0.912-1.671-1.649-2.8-2.214
		C169.215,388.857,167.892,388.575,166.351,388.575z M205.836,375.75v8.528h13.411v4.655h-13.411v19.141
		c0,1.367,0.174,2.496,0.521,3.386c0.348,0.89,0.825,1.605,1.433,2.148c0.608,0.521,1.303,0.89,2.083,1.106
		c0.804,0.217,1.65,0.325,2.539,0.325c0.651,0,1.324-0.032,2.019-0.098c0.694-0.087,1.367-0.185,2.019-0.293
		c0.673-0.108,1.291-0.217,1.855-0.325c0.586-0.13,1.063-0.238,1.432-0.325l0.847,4.264c-0.499,0.304-1.106,0.575-1.823,0.814
		c-0.716,0.217-1.497,0.401-2.344,0.553c-0.846,0.174-1.746,0.304-2.701,0.391c-0.934,0.087-1.866,0.131-2.8,0.131
		c-1.563,0-3.027-0.218-4.395-0.651c-1.345-0.456-2.517-1.161-3.516-2.116c-0.998-0.977-1.79-2.224-2.376-3.743
		c-0.564-1.541-0.847-3.396-0.847-5.566v-19.141h-9.245v-4.655h9.245v-8.528H205.836z M254.665,383.628
		c0.564,0,1.15,0.021,1.758,0.064c0.608,0.022,1.183,0.076,1.726,0.163c0.564,0.065,1.074,0.152,1.529,0.261
		c0.479,0.108,0.869,0.228,1.172,0.357l-0.813,5.893c-1.172-0.261-2.289-0.445-3.353-0.554c-1.042-0.13-2.138-0.195-3.288-0.195
		c-2.822,0-5.111,0.641-6.869,1.921c-1.736,1.28-3.017,3.07-3.842,5.371V419.5h-6.055v-35.222h5.729l0.293,5.6
		c1.433-1.932,3.147-3.451,5.144-4.558C249.813,384.191,252.104,383.628,254.665,383.628z M294.736,419.5
		c-0.238-0.456-0.434-1.02-0.586-1.692c-0.13-0.694-0.228-1.411-0.293-2.148c-0.607,0.607-1.291,1.183-2.051,1.725
		c-0.737,0.543-1.563,1.021-2.474,1.433c-0.89,0.412-1.845,0.738-2.864,0.977s-2.105,0.358-3.256,0.358
		c-1.865,0-3.559-0.271-5.078-0.814c-1.497-0.542-2.777-1.27-3.841-2.181c-1.042-0.934-1.855-2.029-2.441-3.288
		c-0.563-1.28-0.847-2.658-0.847-4.134c0-1.932,0.381-3.624,1.14-5.078c0.781-1.454,1.878-2.658,3.288-3.613
		c1.41-0.977,3.104-1.703,5.078-2.181c1.996-0.478,4.221-0.717,6.673-0.717h6.575v-2.767c0-1.063-0.195-2.019-0.586-2.864
		c-0.391-0.847-0.943-1.563-1.66-2.148c-0.716-0.608-1.595-1.074-2.637-1.4c-1.02-0.325-2.17-0.488-3.45-0.488
		c-1.193,0-2.268,0.152-3.223,0.456c-0.933,0.304-1.726,0.705-2.376,1.204c-0.651,0.499-1.161,1.097-1.53,1.791
		c-0.347,0.673-0.521,1.378-0.521,2.115h-6.055c0.021-1.28,0.348-2.539,0.977-3.775c0.65-1.237,1.573-2.344,2.767-3.32
		c1.216-0.999,2.681-1.802,4.395-2.409c1.736-0.607,3.7-0.911,5.892-0.911c1.997,0,3.853,0.249,5.566,0.748
		c1.715,0.478,3.19,1.216,4.428,2.214c1.259,0.977,2.246,2.203,2.962,3.679s1.074,3.2,1.074,5.176v16.373
		c0,1.172,0.108,2.42,0.325,3.744c0.218,1.302,0.521,2.441,0.912,3.418v0.521H294.736z M284.091,414.91
		c1.172,0,2.269-0.152,3.288-0.456c1.021-0.304,1.942-0.705,2.767-1.204c0.847-0.499,1.574-1.063,2.182-1.692
		c0.607-0.651,1.085-1.324,1.432-2.019v-7.129h-5.599c-3.516,0-6.25,0.521-8.203,1.563s-2.93,2.68-2.93,4.915
		c0,0.868,0.142,1.671,0.423,2.409c0.305,0.738,0.749,1.378,1.335,1.921c0.586,0.521,1.324,0.933,2.214,1.236
		S282.919,414.91,284.091,414.91z M325.856,375.75v8.528h13.411v4.655h-13.411v19.141c0,1.367,0.174,2.496,0.521,3.386
		c0.348,0.89,0.825,1.605,1.433,2.148c0.608,0.521,1.302,0.89,2.083,1.106c0.804,0.217,1.65,0.325,2.539,0.325
		c0.651,0,1.324-0.032,2.019-0.098c0.694-0.087,1.367-0.185,2.019-0.293c0.673-0.108,1.291-0.217,1.855-0.325
		c0.586-0.13,1.063-0.238,1.432-0.325l0.847,4.264c-0.499,0.304-1.106,0.575-1.823,0.814c-0.716,0.217-1.497,0.401-2.344,0.553
		c-0.846,0.174-1.746,0.304-2.701,0.391c-0.934,0.087-1.866,0.131-2.8,0.131c-1.563,0-3.027-0.218-4.395-0.651
		c-1.345-0.456-2.517-1.161-3.516-2.116c-0.998-0.977-1.79-2.224-2.376-3.743c-0.564-1.541-0.847-3.396-0.847-5.566v-19.141h-9.245
		v-4.655h9.245v-8.528H325.856z M367.165,420.151c-2.474,0-4.753-0.424-6.836-1.27c-2.062-0.847-3.83-2.029-5.306-3.549
		c-1.476-1.519-2.626-3.32-3.451-5.403c-0.824-2.083-1.236-4.352-1.236-6.804v-1.367c0-2.843,0.455-5.382,1.367-7.617
		c0.911-2.257,2.115-4.155,3.613-5.696c1.52-1.563,3.233-2.756,5.143-3.581c1.932-0.824,3.906-1.236,5.925-1.236
		c2.539,0,4.753,0.444,6.641,1.334c1.91,0.868,3.494,2.084,4.753,3.646c1.259,1.54,2.191,3.363,2.799,5.469
		c0.63,2.104,0.944,4.384,0.944,6.836v2.701h-25.163c0.065,1.606,0.369,3.114,0.912,4.525c0.564,1.41,1.324,2.647,2.278,3.711
		c0.977,1.041,2.138,1.866,3.483,2.474s2.832,0.911,4.459,0.911c2.148,0,4.059-0.434,5.729-1.302s3.06-2.019,4.167-3.45l3.678,2.864
		c-0.586,0.89-1.323,1.747-2.213,2.571c-0.868,0.804-1.877,1.52-3.027,2.148c-1.15,0.63-2.452,1.129-3.906,1.498
		C370.463,419.956,368.879,420.151,367.165,420.151z M366.383,388.575c-1.215,0-2.365,0.229-3.45,0.684
		c-1.085,0.435-2.062,1.085-2.93,1.953c-0.868,0.847-1.605,1.899-2.214,3.158c-0.586,1.236-0.998,2.669-1.237,4.297h18.945v-0.456
		c-0.064-1.172-0.293-2.333-0.684-3.483c-0.368-1.149-0.922-2.181-1.66-3.092c-0.737-0.912-1.67-1.649-2.799-2.214
		C369.248,388.857,367.924,388.575,366.383,388.575z"/>
</g>
</svg>
